<?xml version="1.0" encoding="utf-8"?>
<!-- Generator: Adobe Illustrator 24.1.1, SVG Export Plug-In . SVG Version: 6.00 Build 0)  -->
<svg version="1.1" id="Layer" xmlns="http://www.w3.org/2000/svg" xmlns:xlink="http://www.w3.org/1999/xlink" x="0px" y="0px"
	 viewBox="0 0 500 500" style="enable-background:new 0 0 500 500;" xml:space="preserve">
<style type="text/css">
	.st0{display:none;fill:#8F93FF;}
	.st1{fill:#767AF5;}
	.st2{fill:#1F2125;}
	.st3{enable-background:new    ;}
	.st4{fill:#BFBFBF;}
	.st5{fill:#F2F2F2;}
	.st6{fill:#D9D9D9;}
	.st7{fill:#4D4D4D;}
	.st8{fill:#FF894C;}
	.st9{fill:#FF7300;}
	.st10{fill:#FFAB80;}
	.st11{fill:#003991;}
	.st12{fill:#F8BBCA;}
	.st13{fill:#804B40;}
	.st14{fill:#ADB0FF;}
	.st15{fill:#FFFFFF;}
	.st16{fill:#2577F7;}
	.st17{fill:#E6E6E6;}
	.st18{fill:#FFC7A6;}
	.st19{fill:#ED4448;}
	.st20{fill:#B3B3B3;}
	.st21{fill:#FFE9C9;}
	.st22{fill:#FF8F33;}
	.st23{fill:#333333;}
	.st24{fill:#AFC840;}
	.st25{fill:#B8BAFF;}
	.st26{fill:#690237;}
	.st27{fill:#FFAF80;}
	.st28{fill:#616161;}
	.st29{fill:#663C33;}
	.st30{fill:#CCCCCC;}
	.st31{fill:#FF6B1F;}
	.st32{fill:#FFA87A;}
	.st33{display:none;}
	.st34{display:inline;}
</style>
<g>
	<rect x="-31.42" y="-31.42" class="st0" width="562.84" height="562.84"/>
	<g>
		<g>
			<g>
				<path class="st1" d="M320.32,399.47L133.63,291.8c-3.15-1.82-2.76-5,0.88-7.11l125.86-72.66c3.64-2.1,9.15-2.33,12.31-0.51
					l186.69,107.67c3.15,1.82,2.76,5-0.88,7.11l-125.86,72.66C328.98,401.07,323.47,401.29,320.32,399.47z"/>
				<rect x="426.41" y="291.35" class="st2" width="5.03" height="7.02"/>
				<g>
					<g>
						<g class="st3">
							<path class="st4" d="M449.17,310.55l-120.6,70.08c-2.31,1.34-6.08,1.34-8.4,0L144.13,279c-1.17-0.67-1.75-1.56-1.75-2.44
								l-0.03,9.93c0,0.88,0.58,1.77,1.75,2.44l176.04,101.64c2.32,1.34,6.09,1.34,8.4,0l120.6-70.09c1.15-0.67,1.72-1.54,1.72-2.42
								l0.03-9.93C450.89,309.01,450.32,309.88,449.17,310.55z"/>
							<g>
								<path class="st5" d="M449.14,305.68c2.32,1.34,2.34,3.52,0.03,4.87l-120.6,70.08c-2.31,1.34-6.08,1.34-8.4,0L144.13,279
									c-2.33-1.34-2.33-3.52-0.02-4.86l120.6-70.08c2.31-1.34,6.07-1.35,8.39,0L449.14,305.68z"/>
							</g>
						</g>
					</g>
					<g>
						<path class="st6" d="M371.51,345.05l-166.95-96.39c-1.38-0.8-1.21-2.19,0.39-3.11l61.85-35.71c1.59-0.92,4.01-1.02,5.39-0.22
							L439.13,306c1.38,0.8,1.21,2.19-0.39,3.11l-61.85,35.71C375.3,345.75,372.89,345.85,371.51,345.05z"/>
						<path class="st4" d="M204.94,246.88l61.85-35.71c1.59-0.92,4.01-1.02,5.39-0.22l166.95,96.39c0.34,0.2,0.59,0.43,0.74,0.69
							c0.38-0.73,0.16-1.5-0.74-2.02l-166.95-96.39c-1.38-0.8-3.79-0.7-5.39,0.22l-61.85,35.71c-1.2,0.69-1.59,1.65-1.13,2.42
							C204.02,247.58,204.39,247.2,204.94,246.88z"/>
					</g>
					<g>
						<path class="st6" d="M272.72,349.09l-76.14-43.96c-1.31-0.75-1.14-2.07,0.37-2.94l44.5-25.69c1.51-0.87,3.79-0.97,5.1-0.21
							l76.14,43.96c1.31,0.75,1.14,2.07-0.37,2.94l-44.5,25.69C276.31,349.75,274.02,349.84,272.72,349.09z"/>
						<path class="st4" d="M196.94,303.59l44.5-25.69c1.51-0.87,3.79-0.97,5.1-0.21l76.14,43.96c0.29,0.17,0.5,0.37,0.65,0.59
							c0.43-0.72,0.23-1.49-0.65-2l-76.14-43.96c-1.31-0.75-3.59-0.66-5.1,0.21l-44.5,25.69c-1.17,0.67-1.52,1.61-1.02,2.35
							C196.12,304.2,196.45,303.87,196.94,303.59z"/>
					</g>
					<g>
						<g class="st3">
							<path class="st2" d="M279.87,217.52l-5.46,3.17c-0.38,0.22-1,0.22-1.39,0l-9.09-5.25c-0.19-0.11-0.29-0.26-0.29-0.4l0,0.97
								c0,0.15,0.1,0.29,0.29,0.4l9.09,5.25c0.39,0.22,1.01,0.22,1.39,0l5.46-3.17c0.19-0.11,0.29-0.26,0.29-0.4l0-0.97
								C280.16,217.26,280.06,217.4,279.87,217.52z"/>
							<g>
								<path class="st7" d="M279.87,216.71c0.39,0.22,0.39,0.59,0,0.81l-5.46,3.17c-0.38,0.22-1,0.22-1.39,0l-9.09-5.25
									c-0.38-0.22-0.38-0.58,0-0.8l5.46-3.17c0.39-0.22,1.01-0.22,1.39,0L279.87,216.71z"/>
							</g>
						</g>
						<g class="st3">
							<path class="st2" d="M271.22,221.99l-8.32,4.83c-0.45,0.26-1.18,0.26-1.63,0l-8.37-4.83c-0.23-0.13-0.34-0.3-0.34-0.47
								l0,0.97c0,0.17,0.11,0.34,0.34,0.47l8.37,4.84c0.45,0.26,1.18,0.26,1.63,0l8.32-4.84c0.22-0.13,0.33-0.3,0.33-0.47l0-0.97
								C271.55,221.69,271.44,221.86,271.22,221.99z"/>
							<g>
								<path class="st7" d="M271.22,221.04c0.45,0.26,0.45,0.68,0.01,0.94l-8.32,4.83c-0.45,0.26-1.18,0.26-1.63,0l-8.37-4.83
									c-0.45-0.26-0.45-0.68-0.01-0.94l8.32-4.83c0.45-0.26,1.18-0.26,1.63,0L271.22,221.04z"/>
							</g>
						</g>
						<g class="st3">
							<path class="st2" d="M291.02,223.94l-5.48,3.18c-0.38,0.22-0.99,0.22-1.36,0l-8.72-5.03c-0.19-0.11-0.28-0.25-0.28-0.39
								l0,0.97c0,0.14,0.09,0.29,0.28,0.39l8.72,5.03c0.37,0.22,0.98,0.22,1.36,0l5.48-3.18c0.19-0.11,0.28-0.25,0.28-0.39l0-0.97
								C291.3,223.68,291.21,223.83,291.02,223.94z"/>
							<g>
								<path class="st7" d="M291.02,223.15c0.37,0.22,0.38,0.57,0,0.79l-5.48,3.18c-0.38,0.22-0.99,0.22-1.36,0l-8.72-5.03
									c-0.37-0.22-0.38-0.57,0-0.79l5.48-3.18c0.38-0.22,0.99-0.22,1.36,0L291.02,223.15z"/>
							</g>
						</g>
						<g class="st3">
							<path class="st2" d="M282.81,228.67l-8.32,4.83c-0.45,0.26-1.18,0.26-1.63,0l-8.37-4.83c-0.23-0.13-0.35-0.31-0.35-0.48
								l0,0.97c0,0.17,0.11,0.35,0.35,0.48l8.37,4.83c0.46,0.26,1.19,0.26,1.63,0l8.32-4.84c0.22-0.13,0.33-0.3,0.33-0.47l0-0.97
								C283.14,228.38,283.03,228.55,282.81,228.67z"/>
							<g>
								<path class="st7" d="M282.79,227.73c0.46,0.26,0.46,0.69,0.01,0.95l-8.32,4.83c-0.45,0.26-1.18,0.26-1.63,0l-8.37-4.83
									c-0.46-0.26-0.46-0.69-0.01-0.95l8.32-4.83c0.45-0.26,1.18-0.26,1.63,0L282.79,227.73z"/>
							</g>
						</g>
						<g class="st3">
							<path class="st2" d="M302.38,230.5l-5.48,3.18c-0.38,0.22-0.99,0.22-1.37,0l-8.71-5.03c-0.19-0.11-0.29-0.25-0.29-0.4l0,0.97
								c0,0.14,0.1,0.29,0.29,0.4l8.71,5.03c0.38,0.22,0.99,0.22,1.37,0l5.48-3.18c0.19-0.11,0.28-0.25,0.28-0.39l0-0.97
								C302.67,230.25,302.57,230.39,302.38,230.5z"/>
							<g>
								<path class="st7" d="M302.38,229.7c0.38,0.22,0.38,0.57,0,0.79l-5.48,3.18c-0.38,0.22-0.99,0.22-1.37,0l-8.71-5.03
									c-0.38-0.22-0.38-0.57,0-0.79l5.48-3.18c0.38-0.22,0.99-0.22,1.37,0L302.38,229.7z"/>
							</g>
						</g>
						<g class="st3">
							<path class="st2" d="M313.75,237.06l-5.48,3.18c-0.38,0.22-0.99,0.22-1.37,0l-8.72-5.03c-0.19-0.11-0.28-0.25-0.28-0.39
								l0,0.97c0,0.14,0.09,0.28,0.28,0.39l8.72,5.03c0.37,0.22,0.99,0.22,1.37,0l5.48-3.18c0.19-0.11,0.28-0.25,0.28-0.39l0-0.97
								C314.03,236.81,313.93,236.95,313.75,237.06z"/>
							<g>
								<path class="st7" d="M313.74,236.26c0.37,0.22,0.38,0.57,0,0.79l-5.48,3.18c-0.38,0.22-0.99,0.22-1.37,0l-8.72-5.03
									c-0.37-0.22-0.38-0.57,0-0.79l5.48-3.18c0.38-0.22,0.99-0.22,1.36,0L313.74,236.26z"/>
							</g>
						</g>
						<g class="st3">
							<path class="st2" d="M325.1,243.61l-5.48,3.18c-0.38,0.22-0.99,0.22-1.36,0l-8.72-5.03c-0.19-0.11-0.29-0.25-0.29-0.4l0,0.97
								c0,0.14,0.1,0.29,0.29,0.4l8.72,5.03c0.37,0.22,0.98,0.22,1.36,0l5.48-3.18c0.19-0.11,0.28-0.25,0.28-0.39l0-0.97
								C325.39,243.36,325.29,243.5,325.1,243.61z"/>
							<g>
								<path class="st7" d="M325.11,242.83c0.37,0.22,0.38,0.57,0,0.79l-5.48,3.18c-0.38,0.22-0.99,0.22-1.36,0l-8.72-5.03
									c-0.38-0.22-0.38-0.57,0-0.79l5.48-3.18c0.38-0.22,0.99-0.22,1.37,0L325.11,242.83z"/>
							</g>
						</g>
						<g class="st3">
							<path class="st2" d="M336.47,250.17l-5.48,3.18c-0.38,0.22-0.99,0.22-1.37,0l-8.71-5.03c-0.19-0.11-0.29-0.25-0.29-0.4
								l0,0.97c0,0.14,0.1,0.29,0.29,0.4l8.71,5.03c0.38,0.22,0.99,0.22,1.37,0l5.48-3.18c0.19-0.11,0.28-0.25,0.28-0.39l0-0.97
								C336.75,249.92,336.65,250.06,336.47,250.17z"/>
							<g>
								<path class="st7" d="M336.46,249.38c0.38,0.22,0.38,0.57,0,0.79l-5.48,3.18c-0.38,0.22-0.99,0.22-1.37,0l-8.71-5.03
									c-0.38-0.22-0.38-0.57,0-0.79l5.48-3.18c0.38-0.22,0.99-0.22,1.37,0L336.46,249.38z"/>
							</g>
						</g>
						<g class="st3">
							<path class="st2" d="M347.82,256.73l-5.48,3.18c-0.38,0.22-0.99,0.22-1.36,0l-8.72-5.03c-0.19-0.11-0.28-0.25-0.28-0.39
								l0,0.97c0,0.14,0.09,0.29,0.28,0.39l8.72,5.03c0.37,0.22,0.98,0.22,1.36,0l5.48-3.18c0.19-0.11,0.28-0.25,0.28-0.4l0-0.97
								C348.1,256.48,348.01,256.62,347.82,256.73z"/>
							<g>
								<path class="st7" d="M347.82,255.94c0.37,0.22,0.38,0.57,0,0.79l-5.48,3.18c-0.38,0.22-0.99,0.22-1.36,0l-8.72-5.03
									c-0.37-0.22-0.38-0.57,0-0.79l5.48-3.18c0.38-0.22,0.99-0.22,1.36,0L347.82,255.94z"/>
							</g>
						</g>
						<g class="st3">
							<path class="st2" d="M359.19,263.29l-5.48,3.18c-0.38,0.22-0.99,0.22-1.37,0l-8.71-5.03c-0.19-0.11-0.29-0.25-0.29-0.4
								l0,0.97c0,0.14,0.1,0.29,0.29,0.4l8.71,5.03c0.38,0.22,0.99,0.22,1.37,0l5.48-3.18c0.19-0.11,0.28-0.25,0.28-0.39l0-0.97
								C359.47,263.04,359.37,263.18,359.19,263.29z"/>
							<g>
								<path class="st7" d="M359.18,262.5c0.38,0.22,0.38,0.57,0,0.79l-5.48,3.18c-0.38,0.22-0.99,0.22-1.37,0l-8.71-5.03
									c-0.38-0.22-0.38-0.57,0-0.79l5.48-3.18c0.38-0.22,0.99-0.22,1.37,0L359.18,262.5z"/>
							</g>
						</g>
						<g class="st3">
							<path class="st2" d="M370.54,269.85l-5.48,3.18c-0.38,0.22-0.99,0.22-1.36,0l-8.72-5.03c-0.19-0.11-0.28-0.25-0.28-0.39
								l0,0.97c0,0.14,0.09,0.29,0.28,0.39l8.72,5.03c0.37,0.22,0.98,0.22,1.36,0l5.48-3.18c0.19-0.11,0.28-0.25,0.28-0.4l0-0.97
								C370.82,269.59,370.73,269.74,370.54,269.85z"/>
							<g>
								<path class="st7" d="M370.54,269.06c0.37,0.22,0.38,0.57,0,0.79l-5.48,3.18c-0.38,0.22-0.99,0.22-1.36,0l-8.72-5.03
									c-0.37-0.22-0.38-0.57,0-0.79l5.48-3.18c0.38-0.22,0.99-0.22,1.36,0L370.54,269.06z"/>
							</g>
						</g>
						<g class="st3">
							<path class="st2" d="M381.9,276.41l-5.48,3.18c-0.38,0.22-0.99,0.22-1.37,0l-8.71-5.03c-0.19-0.11-0.29-0.25-0.29-0.4l0,0.97
								c0,0.14,0.1,0.29,0.29,0.4l8.71,5.03c0.38,0.22,0.99,0.22,1.37,0l5.48-3.18c0.19-0.11,0.28-0.25,0.28-0.39l0-0.97
								C382.19,276.16,382.09,276.3,381.9,276.41z"/>
							<g>
								<path class="st7" d="M381.9,275.62c0.38,0.22,0.38,0.57,0,0.79l-5.48,3.18c-0.38,0.22-0.99,0.22-1.37,0l-8.71-5.03
									c-0.38-0.22-0.38-0.57,0-0.79l5.48-3.18c0.38-0.22,0.99-0.22,1.37,0L381.9,275.62z"/>
							</g>
						</g>
						<g class="st3">
							<path class="st2" d="M393.27,282.97l-5.48,3.18c-0.38,0.22-0.99,0.22-1.37,0l-8.72-5.03c-0.19-0.11-0.28-0.25-0.28-0.39
								l0,0.97c0,0.14,0.09,0.29,0.28,0.39l8.72,5.03c0.37,0.22,0.99,0.22,1.37,0l5.48-3.18c0.19-0.11,0.28-0.25,0.28-0.39l0-0.97
								C393.55,282.72,393.46,282.86,393.27,282.97z"/>
							<g>
								<path class="st7" d="M393.26,282.18c0.37,0.22,0.38,0.57,0,0.79l-5.48,3.18c-0.38,0.22-0.99,0.22-1.37,0l-8.72-5.03
									c-0.37-0.22-0.38-0.57,0-0.79l5.48-3.18c0.38-0.22,0.99-0.22,1.36,0L393.26,282.18z"/>
							</g>
						</g>
						<g class="st3">
							<path class="st2" d="M404.62,289.53l-5.48,3.18c-0.38,0.22-0.99,0.22-1.36,0.01l-8.72-5.03c-0.19-0.11-0.28-0.25-0.28-0.4
								l0,0.97c0,0.15,0.1,0.29,0.28,0.4l8.72,5.03c0.37,0.22,0.98,0.22,1.36,0l5.48-3.18c0.19-0.11,0.28-0.25,0.28-0.39l0-0.97
								C404.91,289.27,404.81,289.42,404.62,289.53z"/>
							<g>
								<path class="st7" d="M404.63,288.74c0.37,0.22,0.38,0.57,0,0.79l-5.48,3.18c-0.38,0.22-0.99,0.22-1.36,0.01l-8.72-5.03
									c-0.37-0.22-0.38-0.57,0-0.79l5.48-3.18c0.38-0.22,0.99-0.22,1.37,0L404.63,288.74z"/>
							</g>
						</g>
						<g class="st3">
							<g>
								<path class="st2" d="M400.61,295l0-0.97c0,0.19,0.13,0.39,0.39,0.54l0,0.97C400.73,295.39,400.6,295.2,400.61,295z"/>
							</g>
							<g>
								<path class="st2" d="M425.17,300.91l0,0.97c0,0.2-0.13,0.39-0.39,0.54l0-0.97C425.04,301.3,425.17,301.11,425.17,300.91z"/>
							</g>
							<g>
								<polygon class="st2" points="424.78,301.45 424.78,302.43 419.79,305.32 419.8,304.35 								"/>
							</g>
							<g>
								<polygon class="st2" points="417.94,304.35 417.94,305.32 400.99,295.54 401,294.57 								"/>
							</g>
							<g>
								<path class="st2" d="M419.8,304.35l0,0.97c-0.51,0.29-1.34,0.29-1.85,0l0-0.97C418.45,304.65,419.29,304.65,419.8,304.35z"
									/>
							</g>
							<g>
								<path class="st7" d="M424.78,300.37c0.51,0.29,0.51,0.78,0,1.08l-4.99,2.9c-0.51,0.3-1.34,0.3-1.85,0L401,294.57
									c-0.52-0.3-0.51-0.78-0.01-1.07l4.99-2.9c0.52-0.3,1.34-0.3,1.86,0L424.78,300.37z"/>
							</g>
						</g>
						<g class="st3">
							<path class="st2" d="M294.14,235.22l-8.32,4.83c-0.45,0.26-1.18,0.26-1.63,0l-8.37-4.83c-0.23-0.13-0.34-0.31-0.34-0.48
								l0,0.97c0,0.17,0.11,0.35,0.34,0.48l8.37,4.83c0.46,0.26,1.19,0.26,1.63,0l8.32-4.83c0.22-0.13,0.33-0.3,0.33-0.47l0-0.97
								C294.47,234.92,294.36,235.09,294.14,235.22z"/>
							<g>
								<path class="st7" d="M294.13,234.27c0.46,0.26,0.46,0.69,0.01,0.95l-8.32,4.83c-0.45,0.26-1.18,0.26-1.63,0l-8.37-4.83
									c-0.45-0.26-0.46-0.69-0.01-0.95l8.32-4.84c0.45-0.26,1.18-0.26,1.63,0L294.13,234.27z"/>
							</g>
						</g>
						<g class="st3">
							<path class="st2" d="M265.86,231.75l-7.9,4.59c-0.56,0.33-1.49,0.33-2.05,0l-13.69-7.9c-0.29-0.17-0.43-0.38-0.43-0.6l0,0.97
								c0,0.22,0.14,0.43,0.43,0.6l13.69,7.9c0.56,0.33,1.49,0.33,2.05,0l7.9-4.59c0.28-0.16,0.42-0.38,0.42-0.59l0-0.97
								C266.28,231.38,266.14,231.59,265.86,231.75z"/>
							<g>
								<path class="st7" d="M265.86,230.56c0.56,0.33,0.57,0.86,0.01,1.19l-7.9,4.59c-0.56,0.33-1.49,0.33-2.05,0l-13.69-7.9
									c-0.57-0.33-0.57-0.86-0.01-1.19l7.9-4.59c0.56-0.33,1.48-0.33,2.05,0L265.86,230.56z"/>
							</g>
						</g>
						<g class="st3">
							<path class="st2" d="M277.81,238.41l-8.31,4.83c-0.45,0.26-1.18,0.26-1.64,0l-8.37-4.83c-0.23-0.13-0.34-0.3-0.34-0.48
								l0,0.97c0,0.17,0.11,0.35,0.34,0.48l8.37,4.83c0.46,0.26,1.19,0.26,1.64,0l8.31-4.83c0.23-0.13,0.34-0.3,0.34-0.47l0-0.97
								C278.14,238.11,278.03,238.28,277.81,238.41z"/>
							<g>
								<path class="st7" d="M277.8,237.46c0.46,0.26,0.46,0.69,0.01,0.95l-8.31,4.83c-0.45,0.26-1.18,0.26-1.64,0l-8.37-4.83
									c-0.45-0.26-0.45-0.69,0-0.95l8.31-4.83c0.45-0.26,1.19-0.26,1.64,0L277.8,237.46z"/>
							</g>
						</g>
						<g class="st3">
							<path class="st2" d="M257.35,240.05l-7.72,4.49c-0.61,0.36-1.62,0.36-2.24,0l-16.4-9.47c-0.31-0.18-0.47-0.42-0.47-0.65
								l0,0.97c0,0.24,0.15,0.47,0.47,0.65l16.4,9.47c0.62,0.36,1.62,0.36,2.23,0l7.72-4.49c0.3-0.18,0.46-0.41,0.46-0.64l0-0.97
								C257.81,239.64,257.66,239.87,257.35,240.05z"/>
							<g>
								<path class="st7" d="M257.34,238.75c0.62,0.36,0.62,0.94,0.01,1.29l-7.72,4.49c-0.61,0.36-1.62,0.36-2.24,0l-16.4-9.47
									c-0.63-0.36-0.62-0.94-0.01-1.29l7.72-4.49c0.61-0.36,1.61-0.36,2.23,0L257.34,238.75z"/>
							</g>
						</g>
						<g class="st3">
							<path class="st2" d="M305.47,241.76l-8.32,4.83c-0.45,0.26-1.18,0.26-1.63,0l-8.37-4.83c-0.23-0.13-0.34-0.31-0.34-0.48
								l0,0.97c0,0.17,0.11,0.35,0.34,0.48l8.37,4.83c0.46,0.26,1.19,0.26,1.63,0l8.32-4.83c0.22-0.13,0.33-0.3,0.33-0.47l0-0.97
								C305.8,241.46,305.69,241.63,305.47,241.76z"/>
							<g>
								<path class="st7" d="M305.46,240.81c0.46,0.26,0.46,0.69,0.01,0.95l-8.32,4.83c-0.45,0.26-1.18,0.26-1.63,0l-8.37-4.83
									c-0.45-0.26-0.46-0.69-0.01-0.95l8.32-4.84c0.45-0.26,1.18-0.26,1.63,0L305.46,240.81z"/>
							</g>
						</g>
						<g class="st3">
							<path class="st2" d="M289.25,245.01l-8.31,4.83c-0.45,0.26-1.18,0.26-1.64,0l-8.37-4.83c-0.23-0.13-0.34-0.3-0.34-0.48
								l0,0.97c0,0.17,0.11,0.35,0.34,0.48l8.37,4.83c0.46,0.26,1.2,0.26,1.64,0l8.31-4.83c0.23-0.13,0.34-0.3,0.34-0.47l0-0.97
								C289.58,244.71,289.47,244.88,289.25,245.01z"/>
							<g>
								<path class="st7" d="M289.24,244.06c0.46,0.26,0.46,0.69,0.01,0.95l-8.31,4.83c-0.45,0.26-1.18,0.26-1.64,0l-8.37-4.83
									c-0.45-0.26-0.45-0.69-0.01-0.95l8.31-4.83c0.45-0.26,1.19-0.26,1.64,0L289.24,244.06z"/>
							</g>
						</g>
						<g class="st3">
							<path class="st2" d="M269.41,246.48l-8.31,4.83c-0.46,0.26-1.19,0.26-1.64,0l-8.37-4.83c-0.23-0.13-0.34-0.3-0.34-0.47
								l0,0.97c0,0.17,0.11,0.34,0.34,0.47l8.37,4.83c0.46,0.26,1.19,0.26,1.64,0l8.31-4.83c0.22-0.13,0.34-0.3,0.34-0.47l0-0.97
								C269.74,246.18,269.63,246.35,269.41,246.48z"/>
							<g>
								<path class="st7" d="M269.4,245.53c0.46,0.26,0.45,0.69,0.01,0.95l-8.31,4.83c-0.46,0.26-1.19,0.26-1.64,0l-8.37-4.83
									c-0.45-0.26-0.45-0.68,0-0.95l8.31-4.83c0.45-0.26,1.18-0.26,1.63,0L269.4,245.53z"/>
							</g>
						</g>
						<g class="st3">
							<path class="st2" d="M241.09,243.12l-8.08,4.69c-0.52,0.3-1.35,0.3-1.87,0l-11.26-6.5c-0.26-0.15-0.39-0.35-0.39-0.55l0,0.97
								c0,0.2,0.13,0.4,0.39,0.55l11.26,6.5c0.52,0.3,1.36,0.3,1.87,0l8.08-4.69c0.26-0.15,0.39-0.35,0.39-0.54l0-0.97
								C241.48,242.77,241.35,242.97,241.09,243.12z"/>
							<g>
								<path class="st7" d="M241.09,242.03c0.52,0.3,0.51,0.79,0,1.09l-8.08,4.69c-0.52,0.3-1.35,0.3-1.87,0l-11.26-6.5
									c-0.52-0.3-0.52-0.78-0.01-1.08l8.08-4.69c0.52-0.3,1.36-0.3,1.88,0L241.09,242.03z"/>
							</g>
						</g>
						<g class="st3">
							<path class="st2" d="M252.56,249.72l-8.31,4.83c-0.45,0.26-1.18,0.26-1.63,0l-8.37-4.83c-0.23-0.13-0.34-0.3-0.34-0.47
								l0,0.97c0,0.17,0.11,0.34,0.34,0.47l8.37,4.83c0.45,0.26,1.18,0.26,1.63,0l8.31-4.83c0.23-0.13,0.34-0.3,0.34-0.47l0-0.97
								C252.9,249.42,252.79,249.59,252.56,249.72z"/>
							<g>
								<path class="st7" d="M252.57,248.77c0.45,0.26,0.45,0.68,0,0.95l-8.31,4.83c-0.45,0.26-1.18,0.26-1.63,0l-8.37-4.83
									c-0.45-0.26-0.45-0.68,0-0.95l8.31-4.83c0.45-0.26,1.18-0.26,1.63,0L252.57,248.77z"/>
							</g>
						</g>
						<g class="st3">
							<path class="st2" d="M227.09,247.63l-8.32,4.83c-0.45,0.26-1.18,0.26-1.63,0l-8.37-4.83c-0.23-0.13-0.34-0.3-0.34-0.47
								l0,0.97c0,0.17,0.11,0.34,0.34,0.47l8.37,4.83c0.45,0.26,1.18,0.26,1.63,0l8.32-4.83c0.22-0.13,0.33-0.3,0.33-0.47l0-0.97
								C227.43,247.33,227.32,247.5,227.09,247.63z"/>
							<g>
								<path class="st7" d="M227.09,246.69c0.45,0.26,0.45,0.68,0.01,0.94l-8.32,4.83c-0.45,0.26-1.18,0.26-1.63,0l-8.37-4.83
									c-0.45-0.26-0.45-0.68,0-0.94l8.32-4.83c0.45-0.26,1.18-0.26,1.63,0L227.09,246.69z"/>
							</g>
						</g>
						<g class="st3">
							<path class="st2" d="M238.91,254.45l-8.32,4.83c-0.45,0.26-1.18,0.26-1.63,0l-8.37-4.83c-0.23-0.13-0.34-0.31-0.34-0.48
								l0,0.97c0,0.17,0.11,0.35,0.34,0.48l8.37,4.83c0.46,0.26,1.19,0.26,1.63,0l8.32-4.83c0.22-0.13,0.33-0.3,0.33-0.47l0-0.97
								C239.24,254.15,239.13,254.32,238.91,254.45z"/>
							<g>
								<path class="st7" d="M238.89,253.5c0.46,0.26,0.46,0.69,0.01,0.95l-8.32,4.83c-0.45,0.26-1.18,0.26-1.63,0l-8.37-4.83
									c-0.45-0.26-0.46-0.69-0.01-0.95l8.32-4.83c0.45-0.26,1.18-0.26,1.63,0L238.89,253.5z"/>
							</g>
						</g>
						<g class="st3">
							<path class="st2" d="M316.8,248.3l-8.32,4.84c-0.45,0.26-1.18,0.26-1.63,0l-8.37-4.83c-0.23-0.13-0.34-0.3-0.34-0.47l0,0.97
								c0,0.17,0.11,0.34,0.34,0.47l8.37,4.83c0.46,0.26,1.19,0.26,1.63,0l8.32-4.83c0.22-0.13,0.33-0.3,0.33-0.47l0-0.97
								C317.14,248.01,317.03,248.17,316.8,248.3z"/>
							<g>
								<path class="st7" d="M316.79,247.36c0.46,0.26,0.46,0.69,0.01,0.95l-8.32,4.84c-0.45,0.26-1.18,0.26-1.63,0l-8.37-4.83
									c-0.45-0.26-0.45-0.68-0.01-0.94l8.32-4.83c0.45-0.26,1.18-0.26,1.63,0L316.79,247.36z"/>
							</g>
						</g>
						<g class="st3">
							<path class="st2" d="M300.68,251.62l-8.31,4.83c-0.45,0.26-1.18,0.26-1.64,0l-8.37-4.83c-0.23-0.13-0.34-0.31-0.34-0.48
								l0,0.97c0,0.17,0.11,0.35,0.34,0.48l8.37,4.83c0.46,0.26,1.2,0.26,1.64,0l8.31-4.83c0.23-0.13,0.34-0.3,0.34-0.47l0-0.97
								C301.02,251.32,300.91,251.49,300.68,251.62z"/>
							<g>
								<path class="st7" d="M300.68,250.67c0.46,0.26,0.46,0.69,0.01,0.95l-8.31,4.83c-0.45,0.26-1.18,0.26-1.64,0l-8.37-4.83
									c-0.45-0.26-0.45-0.69-0.01-0.95l8.31-4.83c0.45-0.26,1.19-0.26,1.64,0L300.68,250.67z"/>
							</g>
						</g>
						<g class="st3">
							<path class="st2" d="M280.79,253.05l-8.31,4.83c-0.45,0.26-1.18,0.26-1.64,0l-8.37-4.83c-0.23-0.13-0.34-0.3-0.34-0.47
								l0,0.97c0,0.17,0.11,0.34,0.34,0.47l8.37,4.83c0.46,0.26,1.19,0.26,1.64,0l8.31-4.83c0.22-0.13,0.34-0.3,0.34-0.47l0-0.97
								C281.13,252.75,281.02,252.92,280.79,253.05z"/>
							<g>
								<path class="st7" d="M280.79,252.1c0.46,0.26,0.45,0.69,0.01,0.95l-8.31,4.83c-0.45,0.26-1.18,0.26-1.64,0l-8.37-4.83
									c-0.45-0.26-0.45-0.68,0-0.95l8.31-4.83c0.45-0.26,1.18-0.26,1.63,0L280.79,252.1z"/>
							</g>
						</g>
						<g class="st3">
							<path class="st2" d="M263.9,256.26l-8.31,4.83c-0.45,0.26-1.18,0.26-1.63,0l-8.37-4.83c-0.23-0.13-0.34-0.3-0.34-0.47l0,0.97
								c0,0.17,0.11,0.34,0.34,0.47l8.37,4.83c0.45,0.26,1.18,0.26,1.63,0l8.31-4.83c0.23-0.13,0.34-0.3,0.34-0.47l0-0.97
								C264.24,255.96,264.12,256.13,263.9,256.26z"/>
							<g>
								<path class="st7" d="M263.9,255.32c0.45,0.26,0.45,0.68,0,0.95l-8.31,4.83c-0.45,0.26-1.18,0.26-1.63,0l-8.37-4.83
									c-0.45-0.26-0.45-0.68,0-0.95l8.31-4.83c0.45-0.26,1.18-0.26,1.63,0L263.9,255.32z"/>
							</g>
						</g>
						<g class="st3">
							<path class="st2" d="M250.35,261.05l-8.32,4.83c-0.45,0.26-1.18,0.26-1.63,0l-8.37-4.83c-0.23-0.13-0.34-0.31-0.34-0.48
								l0,0.97c0,0.17,0.11,0.35,0.34,0.48l8.37,4.83c0.46,0.26,1.19,0.26,1.63,0l8.32-4.83c0.22-0.13,0.33-0.3,0.33-0.47l0-0.97
								C250.68,260.76,250.57,260.93,250.35,261.05z"/>
							<g>
								<path class="st7" d="M250.33,260.11c0.46,0.26,0.46,0.69,0.01,0.95l-8.32,4.83c-0.45,0.26-1.18,0.26-1.63,0l-8.37-4.83
									c-0.45-0.26-0.46-0.69-0.01-0.95l8.32-4.83c0.45-0.26,1.18-0.26,1.63,0L250.33,260.11z"/>
							</g>
						</g>
						<g class="st3">
							<path class="st2" d="M328.14,254.85l-8.32,4.84c-0.45,0.26-1.18,0.26-1.63,0l-8.37-4.84c-0.23-0.13-0.34-0.3-0.34-0.47
								l0,0.97c0,0.17,0.11,0.34,0.34,0.47l8.37,4.83c0.45,0.26,1.18,0.26,1.63,0l8.32-4.83c0.22-0.13,0.33-0.3,0.33-0.47l0-0.97
								C328.47,254.55,328.36,254.72,328.14,254.85z"/>
							<g>
								<path class="st7" d="M328.13,253.9c0.45,0.26,0.45,0.68,0.01,0.94l-8.32,4.84c-0.45,0.26-1.18,0.26-1.63,0l-8.37-4.84
									c-0.45-0.26-0.45-0.68-0.01-0.94l8.32-4.84c0.45-0.26,1.18-0.26,1.63,0L328.13,253.9z"/>
							</g>
						</g>
						<g class="st3">
							<path class="st2" d="M312.12,258.22l-8.31,4.83c-0.45,0.26-1.18,0.26-1.64,0l-8.37-4.83c-0.23-0.13-0.34-0.31-0.34-0.48
								l0,0.97c0,0.17,0.11,0.35,0.34,0.48l8.37,4.83c0.46,0.26,1.19,0.26,1.64,0l8.31-4.83c0.23-0.13,0.34-0.3,0.34-0.47l0-0.97
								C312.46,257.92,312.35,258.09,312.12,258.22z"/>
							<g>
								<path class="st7" d="M312.12,257.27c0.46,0.26,0.46,0.69,0.01,0.95l-8.31,4.83c-0.45,0.26-1.18,0.26-1.64,0l-8.37-4.83
									c-0.45-0.26-0.45-0.69-0.01-0.95l8.31-4.83c0.45-0.26,1.19-0.26,1.64,0L312.12,257.27z"/>
							</g>
						</g>
						<g class="st3">
							<path class="st2" d="M292.18,259.63l-8.31,4.83c-0.45,0.26-1.18,0.26-1.64,0l-8.37-4.83c-0.23-0.13-0.34-0.3-0.34-0.47
								l0,0.97c0,0.17,0.11,0.34,0.34,0.47l8.37,4.83c0.46,0.26,1.19,0.26,1.64,0l8.31-4.83c0.22-0.13,0.34-0.3,0.34-0.47l0-0.97
								C292.51,259.33,292.4,259.5,292.18,259.63z"/>
							<g>
								<path class="st7" d="M292.17,258.68c0.46,0.26,0.45,0.69,0.01,0.95l-8.31,4.83c-0.45,0.26-1.18,0.26-1.64,0l-8.37-4.83
									c-0.45-0.26-0.45-0.68,0-0.95l8.31-4.83c0.45-0.26,1.18-0.26,1.63,0L292.17,258.68z"/>
							</g>
						</g>
						<g class="st3">
							<path class="st2" d="M275.23,262.81l-8.31,4.83c-0.45,0.26-1.19,0.26-1.63,0l-8.37-4.83c-0.23-0.13-0.35-0.31-0.34-0.48
								l0,0.97c0,0.17,0.11,0.35,0.34,0.48l8.37,4.83c0.45,0.26,1.18,0.26,1.63,0l8.31-4.83c0.23-0.13,0.34-0.3,0.34-0.47l0-0.97
								C275.57,262.5,275.46,262.68,275.23,262.81z"/>
							<g>
								<path class="st7" d="M275.23,261.86c0.45,0.26,0.45,0.68,0,0.95l-8.31,4.83c-0.45,0.26-1.19,0.26-1.63,0l-8.37-4.83
									c-0.46-0.26-0.46-0.69-0.01-0.95l8.31-4.83c0.45-0.26,1.18-0.26,1.64,0L275.23,261.86z"/>
							</g>
						</g>
						<g class="st3">
							<path class="st2" d="M264.33,269.25l-8.11,4.71c-0.51,0.29-1.33,0.29-1.84,0l-10.81-6.24c-0.25-0.15-0.38-0.34-0.38-0.54
								l0,0.97c0,0.2,0.13,0.39,0.38,0.54l10.81,6.24c0.51,0.29,1.33,0.29,1.84,0l8.11-4.71c0.25-0.15,0.38-0.34,0.38-0.53l0-0.97
								C264.7,268.91,264.58,269.1,264.33,269.25z"/>
							<g>
								<path class="st7" d="M264.32,268.18c0.51,0.3,0.51,0.77,0.01,1.07l-8.11,4.71c-0.51,0.29-1.33,0.29-1.84,0l-10.81-6.24
									c-0.5-0.29-0.51-0.77-0.01-1.07l8.11-4.71c0.51-0.29,1.34-0.29,1.84,0L264.32,268.18z"/>
							</g>
						</g>
						<g class="st3">
							<path class="st2" d="M303.56,266.2l-8.31,4.83c-0.45,0.26-1.18,0.26-1.63,0l-8.37-4.83c-0.23-0.13-0.34-0.3-0.34-0.47l0,0.97
								c0,0.17,0.11,0.34,0.34,0.47l8.37,4.83c0.45,0.26,1.18,0.26,1.63,0l8.31-4.83c0.22-0.13,0.34-0.3,0.34-0.47l0-0.97
								C303.9,265.9,303.79,266.07,303.56,266.2z"/>
							<g>
								<path class="st7" d="M303.57,265.26c0.45,0.26,0.45,0.69,0,0.95l-8.31,4.83c-0.45,0.26-1.18,0.26-1.63,0l-8.37-4.83
									c-0.45-0.26-0.45-0.68,0-0.95l8.31-4.83c0.45-0.26,1.18-0.26,1.63,0L303.57,265.26z"/>
							</g>
						</g>
						<g class="st3">
							<path class="st2" d="M286.57,269.35l-8.31,4.83c-0.45,0.26-1.19,0.26-1.64,0l-8.37-4.83c-0.23-0.13-0.35-0.31-0.35-0.48
								l0,0.97c0,0.17,0.11,0.35,0.34,0.48l8.37,4.83c0.45,0.26,1.19,0.26,1.64,0l8.31-4.83c0.23-0.13,0.34-0.3,0.34-0.47l0-0.97
								C286.91,269.05,286.79,269.22,286.57,269.35z"/>
							<g>
								<path class="st7" d="M286.56,268.4c0.45,0.26,0.46,0.69,0.01,0.95l-8.31,4.83c-0.45,0.26-1.19,0.26-1.64,0l-8.37-4.83
									c-0.46-0.26-0.46-0.69-0.01-0.95l8.31-4.83c0.45-0.26,1.18-0.26,1.64,0L286.56,268.4z"/>
							</g>
						</g>
						<g class="st3">
							<path class="st2" d="M339.47,261.39l-8.32,4.83c-0.45,0.26-1.18,0.26-1.63,0l-8.37-4.83c-0.23-0.13-0.34-0.3-0.34-0.47
								l0,0.97c0,0.17,0.11,0.34,0.34,0.47l8.37,4.83c0.45,0.26,1.18,0.26,1.63,0l8.32-4.84c0.22-0.13,0.33-0.3,0.33-0.47l0-0.97
								C339.8,261.09,339.69,261.26,339.47,261.39z"/>
							<g>
								<path class="st7" d="M339.47,260.45c0.45,0.26,0.45,0.68,0.01,0.94l-8.32,4.83c-0.45,0.26-1.18,0.26-1.63,0l-8.37-4.83
									c-0.45-0.26-0.45-0.68-0.01-0.94l8.32-4.83c0.45-0.26,1.18-0.26,1.63,0L339.47,260.45z"/>
							</g>
						</g>
						<g class="st3">
							<path class="st2" d="M323.56,264.83l-8.31,4.83c-0.45,0.26-1.18,0.26-1.64,0l-8.37-4.83c-0.23-0.13-0.34-0.31-0.34-0.48
								l0,0.97c0,0.17,0.11,0.35,0.34,0.48l8.37,4.83c0.46,0.26,1.19,0.26,1.64,0l8.31-4.83c0.23-0.13,0.34-0.3,0.34-0.47l0-0.97
								C323.9,264.53,323.79,264.7,323.56,264.83z"/>
							<g>
								<path class="st7" d="M323.56,263.88c0.46,0.26,0.46,0.69,0.01,0.95l-8.31,4.83c-0.45,0.26-1.18,0.26-1.64,0l-8.37-4.83
									c-0.45-0.26-0.45-0.69-0.01-0.95l8.31-4.83c0.45-0.26,1.19-0.26,1.64,0L323.56,263.88z"/>
							</g>
						</g>
						<g class="st3">
							<path class="st2" d="M314.95,272.78l-8.31,4.83c-0.45,0.26-1.18,0.26-1.63,0l-8.37-4.83c-0.23-0.13-0.34-0.3-0.34-0.47
								l0,0.97c0,0.17,0.11,0.34,0.34,0.47l8.37,4.84c0.45,0.26,1.18,0.26,1.63,0l8.31-4.83c0.22-0.13,0.34-0.3,0.34-0.47l0-0.97
								C315.29,272.47,315.17,272.65,314.95,272.78z"/>
							<g>
								<path class="st7" d="M314.95,271.83c0.45,0.26,0.44,0.69,0,0.95l-8.31,4.83c-0.45,0.26-1.18,0.26-1.63,0l-8.37-4.83
									c-0.45-0.26-0.45-0.68,0-0.95l8.31-4.83c0.45-0.26,1.18-0.26,1.63,0L314.95,271.83z"/>
							</g>
						</g>
						<g class="st3">
							<path class="st2" d="M297.9,275.9l-8.31,4.83c-0.46,0.26-1.19,0.26-1.64,0l-8.37-4.83c-0.23-0.13-0.35-0.31-0.34-0.48l0,0.97
								c0,0.17,0.11,0.35,0.35,0.48l8.37,4.83c0.45,0.26,1.19,0.26,1.64,0l8.31-4.83c0.22-0.13,0.34-0.3,0.34-0.47l0-0.97
								C298.24,275.6,298.13,275.77,297.9,275.9z"/>
							<g>
								<path class="st7" d="M297.9,274.95c0.45,0.26,0.46,0.69,0.01,0.95l-8.31,4.83c-0.46,0.26-1.19,0.26-1.64,0l-8.37-4.83
									c-0.46-0.26-0.46-0.69-0.01-0.95l8.31-4.83c0.45-0.26,1.18-0.26,1.64,0L297.9,274.95z"/>
							</g>
						</g>
						<g class="st3">
							<path class="st2" d="M350.8,267.93l-8.32,4.83c-0.45,0.26-1.18,0.26-1.63,0l-8.37-4.83c-0.23-0.13-0.35-0.31-0.35-0.48
								l0,0.97c0,0.17,0.11,0.35,0.35,0.48l8.37,4.83c0.45,0.26,1.18,0.26,1.63,0l8.32-4.83c0.22-0.13,0.33-0.3,0.33-0.47l0-0.97
								C351.14,267.63,351.03,267.8,350.8,267.93z"/>
							<g>
								<path class="st7" d="M350.8,266.99c0.45,0.26,0.45,0.68,0.01,0.94l-8.32,4.83c-0.45,0.26-1.18,0.26-1.63,0l-8.37-4.83
									c-0.46-0.26-0.46-0.69-0.01-0.95l8.32-4.83c0.45-0.26,1.18-0.26,1.63,0L350.8,266.99z"/>
							</g>
						</g>
						<g class="st3">
							<path class="st2" d="M335,271.43l-8.31,4.83c-0.45,0.26-1.18,0.26-1.64,0l-8.37-4.83c-0.23-0.13-0.34-0.31-0.34-0.48l0,0.97
								c0,0.17,0.11,0.35,0.34,0.48l8.37,4.83c0.46,0.26,1.2,0.26,1.64,0l8.31-4.83c0.23-0.13,0.34-0.3,0.34-0.47l0-0.97
								C335.34,271.13,335.23,271.3,335,271.43z"/>
							<g>
								<path class="st7" d="M335,270.48c0.46,0.26,0.46,0.69,0.01,0.95l-8.31,4.83c-0.45,0.26-1.18,0.26-1.64,0l-8.37-4.83
									c-0.45-0.26-0.45-0.69-0.01-0.95l8.31-4.83c0.45-0.26,1.19-0.26,1.64,0L335,270.48z"/>
							</g>
						</g>
						<g class="st3">
							<path class="st2" d="M326.34,279.35l-8.31,4.83c-0.45,0.26-1.18,0.26-1.63,0l-8.37-4.84c-0.23-0.13-0.34-0.3-0.34-0.47
								l0,0.97c0,0.17,0.11,0.34,0.34,0.47l8.37,4.83c0.45,0.26,1.18,0.26,1.63,0l8.31-4.83c0.22-0.13,0.34-0.3,0.34-0.48l0-0.97
								C326.67,279.05,326.56,279.22,326.34,279.35z"/>
							<g>
								<path class="st7" d="M326.34,278.4c0.45,0.26,0.44,0.69,0,0.95l-8.31,4.83c-0.45,0.26-1.18,0.26-1.63,0l-8.37-4.84
									c-0.45-0.26-0.45-0.68,0-0.95l8.31-4.83c0.45-0.26,1.18-0.26,1.63,0L326.34,278.4z"/>
							</g>
						</g>
						<g class="st3">
							<path class="st2" d="M309.24,282.44l-8.31,4.83c-0.45,0.26-1.18,0.26-1.64,0l-8.37-4.83c-0.23-0.13-0.34-0.31-0.34-0.48
								l0,0.97c0,0.17,0.11,0.35,0.34,0.48l8.37,4.83c0.46,0.26,1.19,0.26,1.64,0l8.31-4.83c0.23-0.13,0.34-0.3,0.34-0.47l0-0.97
								C309.57,282.14,309.46,282.31,309.24,282.44z"/>
							<g>
								<path class="st7" d="M309.23,281.49c0.46,0.26,0.46,0.69,0.01,0.95l-8.31,4.83c-0.45,0.26-1.18,0.26-1.64,0l-8.37-4.83
									c-0.45-0.26-0.46-0.69-0.01-0.95l8.31-4.83c0.45-0.26,1.19-0.26,1.64,0L309.23,281.49z"/>
							</g>
						</g>
						<g class="st3">
							<path class="st2" d="M362.14,274.48l-8.32,4.83c-0.45,0.26-1.18,0.26-1.63,0l-8.37-4.83c-0.23-0.13-0.35-0.31-0.35-0.48
								l0,0.97c0,0.17,0.11,0.35,0.35,0.48l8.37,4.83c0.45,0.26,1.19,0.26,1.63,0l8.32-4.83c0.22-0.13,0.33-0.3,0.33-0.47l0-0.97
								C362.47,274.18,362.36,274.35,362.14,274.48z"/>
							<g>
								<path class="st7" d="M362.13,273.53c0.45,0.26,0.46,0.69,0.01,0.95l-8.32,4.83c-0.45,0.26-1.18,0.26-1.63,0l-8.37-4.83
									c-0.46-0.26-0.46-0.69-0.01-0.95l8.32-4.83c0.45-0.26,1.18-0.26,1.63,0L362.13,273.53z"/>
							</g>
						</g>
						<g class="st3">
							<path class="st2" d="M346.44,278.04l-8.31,4.83c-0.45,0.26-1.18,0.26-1.64,0l-8.37-4.83c-0.23-0.13-0.34-0.3-0.34-0.48
								l0,0.97c0,0.17,0.11,0.35,0.34,0.48l8.37,4.83c0.46,0.26,1.2,0.26,1.64,0l8.31-4.83c0.23-0.13,0.34-0.3,0.34-0.47l0-0.97
								C346.78,277.74,346.67,277.91,346.44,278.04z"/>
							<g>
								<path class="st7" d="M346.44,277.09c0.46,0.26,0.46,0.69,0.01,0.95l-8.31,4.83c-0.45,0.26-1.18,0.26-1.64,0l-8.37-4.83
									c-0.45-0.26-0.45-0.69-0.01-0.95l8.31-4.83c0.45-0.26,1.19-0.26,1.64,0L346.44,277.09z"/>
							</g>
						</g>
						<g class="st3">
							<path class="st2" d="M337.72,285.92l-8.31,4.83c-0.45,0.26-1.18,0.26-1.63,0l-8.37-4.83c-0.23-0.13-0.34-0.3-0.34-0.47
								l0,0.97c0,0.17,0.11,0.34,0.34,0.47l8.37,4.83c0.45,0.26,1.18,0.26,1.63,0l8.31-4.83c0.22-0.13,0.34-0.3,0.34-0.47l0-0.97
								C338.06,285.62,337.95,285.79,337.72,285.92z"/>
							<g>
								<path class="st7" d="M337.73,284.98c0.45,0.26,0.44,0.69,0,0.95l-8.31,4.83c-0.45,0.26-1.18,0.26-1.63,0l-8.37-4.83
									c-0.45-0.26-0.45-0.68,0-0.95l8.31-4.83c0.45-0.26,1.18-0.26,1.63,0L337.73,284.98z"/>
							</g>
						</g>
						<g class="st3">
							<path class="st2" d="M320.57,288.98l-8.31,4.83c-0.46,0.26-1.18,0.26-1.64,0l-8.37-4.83c-0.23-0.13-0.34-0.31-0.34-0.48
								l0,0.97c0,0.17,0.11,0.35,0.34,0.48l8.37,4.83c0.46,0.26,1.19,0.26,1.64,0l8.31-4.83c0.23-0.13,0.34-0.3,0.34-0.47l0-0.97
								C320.91,288.68,320.79,288.85,320.57,288.98z"/>
							<g>
								<path class="st7" d="M320.56,288.03c0.46,0.26,0.46,0.69,0.01,0.95l-8.31,4.83c-0.46,0.26-1.18,0.26-1.64,0l-8.37-4.83
									c-0.45-0.26-0.46-0.69-0.01-0.95l8.31-4.83c0.45-0.26,1.19-0.26,1.64,0L320.56,288.03z"/>
							</g>
						</g>
						<g class="st3">
							<path class="st2" d="M373.48,281.02l-8.32,4.84c-0.45,0.26-1.18,0.26-1.63-0.01l-8.37-4.83c-0.23-0.13-0.35-0.31-0.35-0.48
								l0,0.97c0,0.17,0.11,0.35,0.35,0.48l8.37,4.83c0.45,0.26,1.19,0.26,1.63,0l8.32-4.83c0.22-0.13,0.33-0.3,0.33-0.47l0-0.97
								C373.81,280.73,373.7,280.9,373.48,281.02z"/>
							<g>
								<path class="st7" d="M373.46,280.08c0.45,0.26,0.46,0.69,0.01,0.95l-8.32,4.84c-0.45,0.26-1.18,0.26-1.63-0.01l-8.37-4.83
									c-0.46-0.26-0.46-0.69-0.01-0.95l8.32-4.83c0.45-0.26,1.18-0.26,1.63,0L373.46,280.08z"/>
							</g>
						</g>
						<g class="st3">
							<path class="st2" d="M357.88,284.64l-8.31,4.83c-0.45,0.26-1.18,0.26-1.64,0l-8.37-4.83c-0.23-0.13-0.34-0.31-0.34-0.48
								l0,0.97c0,0.17,0.11,0.35,0.34,0.48l8.37,4.83c0.46,0.26,1.19,0.26,1.64,0l8.31-4.83c0.23-0.13,0.34-0.3,0.34-0.47l0-0.97
								C358.22,284.34,358.11,284.51,357.88,284.64z"/>
							<g>
								<path class="st7" d="M357.88,283.69c0.46,0.26,0.46,0.69,0.01,0.95l-8.31,4.83c-0.45,0.26-1.18,0.26-1.64,0l-8.37-4.83
									c-0.45-0.26-0.45-0.69-0.01-0.95l8.31-4.83c0.45-0.26,1.19-0.26,1.64,0L357.88,283.69z"/>
							</g>
						</g>
						<g class="st3">
							<path class="st2" d="M349.11,292.5l-8.31,4.83c-0.45,0.26-1.18,0.26-1.63,0l-8.37-4.83c-0.23-0.13-0.34-0.3-0.34-0.47l0,0.97
								c0,0.17,0.11,0.34,0.34,0.47l8.37,4.83c0.45,0.26,1.18,0.26,1.63,0l8.31-4.83c0.22-0.13,0.34-0.3,0.34-0.47l0-0.97
								C349.45,292.2,349.33,292.37,349.11,292.5z"/>
							<g>
								<path class="st7" d="M349.11,291.55c0.45,0.26,0.44,0.69,0,0.95l-8.31,4.83c-0.45,0.26-1.18,0.26-1.63,0l-8.37-4.83
									c-0.45-0.26-0.45-0.68,0-0.95l8.31-4.83c0.45-0.26,1.19-0.26,1.63,0L349.11,291.55z"/>
							</g>
						</g>
						<g class="st3">
							<path class="st2" d="M331.9,295.53l-8.31,4.83c-0.45,0.26-1.18,0.26-1.64,0l-8.37-4.83c-0.23-0.13-0.34-0.3-0.34-0.47l0,0.97
								c0,0.17,0.11,0.34,0.34,0.47l8.37,4.83c0.46,0.26,1.19,0.26,1.64,0l8.31-4.83c0.23-0.13,0.34-0.3,0.34-0.47l0-0.97
								C332.24,295.23,332.13,295.4,331.9,295.53z"/>
							<g>
								<path class="st7" d="M331.9,294.58c0.46,0.26,0.46,0.69,0.01,0.95l-8.31,4.83c-0.45,0.26-1.18,0.26-1.64,0l-8.37-4.83
									c-0.45-0.26-0.45-0.68,0-0.95l8.31-4.83c0.46-0.26,1.18-0.26,1.63,0L331.9,294.58z"/>
							</g>
						</g>
						<g class="st3">
							<path class="st2" d="M320.34,302.76l-6.09,3.54c-1.07,0.62-2.79,0.62-3.86,0l-51.82-29.92c-0.54-0.31-0.81-0.72-0.81-1.13
								l0,0.97c0,0.41,0.27,0.81,0.81,1.13l51.82,29.92c1.07,0.62,2.79,0.62,3.86,0l6.09-3.54c0.53-0.31,0.79-0.71,0.79-1.11l0-0.97
								C321.14,302.05,320.87,302.45,320.34,302.76z"/>
							<g>
								<path class="st7" d="M320.33,300.52c1.07,0.62,1.08,1.62,0.01,2.24l-6.09,3.54c-1.07,0.62-2.79,0.62-3.86,0l-51.82-29.92
									c-1.08-0.62-1.08-1.62-0.01-2.24l6.09-3.54c1.07-0.62,2.79-0.62,3.86,0L320.33,300.52z"/>
							</g>
						</g>
						<g class="st3">
							<path class="st2" d="M384.81,287.57l-8.32,4.83c-0.45,0.26-1.18,0.26-1.63,0l-8.37-4.83c-0.23-0.13-0.35-0.31-0.35-0.48
								l0,0.97c0,0.17,0.11,0.35,0.35,0.48l8.37,4.83c0.46,0.26,1.19,0.26,1.63,0l8.32-4.83c0.22-0.13,0.33-0.3,0.33-0.47l0-0.97
								C385.14,287.27,385.03,287.44,384.81,287.57z"/>
							<g>
								<path class="st7" d="M384.8,286.62c0.46,0.26,0.46,0.69,0.01,0.95l-8.32,4.83c-0.45,0.26-1.18,0.26-1.63,0l-8.37-4.83
									c-0.46-0.26-0.46-0.69-0.01-0.95l8.32-4.83c0.45-0.26,1.18-0.26,1.63,0L384.8,286.62z"/>
							</g>
						</g>
						<g class="st3">
							<path class="st2" d="M369.32,291.25l-8.31,4.83c-0.45,0.26-1.18,0.26-1.64,0l-8.37-4.83c-0.23-0.13-0.34-0.3-0.34-0.48
								l0,0.97c0,0.17,0.11,0.35,0.34,0.48l8.37,4.83c0.46,0.26,1.19,0.26,1.64,0l8.31-4.83c0.23-0.13,0.34-0.3,0.34-0.47l0-0.97
								C369.66,290.95,369.55,291.12,369.32,291.25z"/>
							<g>
								<path class="st7" d="M369.32,290.3c0.46,0.26,0.46,0.69,0.01,0.95l-8.31,4.83c-0.45,0.26-1.18,0.26-1.64,0l-8.37-4.83
									c-0.45-0.26-0.45-0.69-0.01-0.95l8.31-4.83c0.45-0.26,1.19-0.26,1.64,0L369.32,290.3z"/>
							</g>
						</g>
						<g class="st3">
							<path class="st2" d="M360.5,299.07l-8.31,4.83c-0.46,0.26-1.18,0.26-1.63,0l-8.37-4.83c-0.23-0.13-0.35-0.31-0.34-0.48
								l0,0.97c0,0.17,0.11,0.35,0.35,0.48l8.37,4.83c0.45,0.26,1.18,0.26,1.63,0l8.31-4.83c0.22-0.13,0.34-0.3,0.34-0.47l0-0.97
								C360.83,298.77,360.72,298.94,360.5,299.07z"/>
							<g>
								<path class="st7" d="M360.5,298.12c0.45,0.26,0.44,0.69,0,0.95l-8.31,4.83c-0.46,0.26-1.18,0.26-1.63,0l-8.37-4.83
									c-0.46-0.26-0.46-0.69-0.01-0.95l8.31-4.83c0.45-0.26,1.18-0.26,1.64,0L360.5,298.12z"/>
							</g>
						</g>
						<g class="st3">
							<path class="st2" d="M343.23,302.07l-8.31,4.83c-0.45,0.26-1.18,0.26-1.63,0l-8.37-4.83c-0.23-0.13-0.34-0.3-0.34-0.47
								l0,0.97c0,0.17,0.11,0.34,0.34,0.47l8.37,4.83c0.45,0.26,1.18,0.26,1.63,0l8.31-4.83c0.23-0.13,0.34-0.3,0.34-0.47l0-0.97
								C343.57,301.77,343.46,301.94,343.23,302.07z"/>
							<g>
								<path class="st7" d="M343.24,301.12c0.45,0.26,0.45,0.68,0,0.95l-8.31,4.83c-0.45,0.26-1.18,0.26-1.63,0l-8.37-4.83
									c-0.45-0.26-0.45-0.68,0-0.95l8.31-4.83c0.45-0.26,1.18-0.26,1.63,0L343.24,301.12z"/>
							</g>
						</g>
						<g class="st3">
							<path class="st2" d="M396.59,294.37l-8.32,4.83c-0.45,0.26-1.18,0.26-1.63,0l-8.37-4.83c-0.23-0.13-0.34-0.31-0.34-0.48
								l0,0.97c0,0.17,0.11,0.35,0.34,0.48l8.37,4.83c0.46,0.26,1.19,0.26,1.63,0l8.32-4.84c0.22-0.13,0.33-0.3,0.33-0.47l0-0.97
								C396.93,294.07,396.81,294.24,396.59,294.37z"/>
							<g>
								<path class="st7" d="M396.58,293.42c0.46,0.26,0.46,0.69,0.01,0.95l-8.32,4.83c-0.45,0.26-1.18,0.26-1.63,0l-8.37-4.83
									c-0.45-0.26-0.46-0.69-0.01-0.95l8.32-4.84c0.45-0.26,1.18-0.26,1.63,0L396.58,293.42z"/>
							</g>
						</g>
						<g class="st3">
							<path class="st2" d="M380.76,297.85l-8.31,4.83c-0.45,0.26-1.18,0.26-1.64,0l-8.37-4.83c-0.23-0.13-0.34-0.3-0.34-0.48
								l0,0.97c0,0.17,0.11,0.35,0.34,0.48l8.37,4.83c0.46,0.26,1.19,0.26,1.64,0l8.31-4.83c0.23-0.13,0.34-0.3,0.34-0.47l0-0.97
								C381.1,297.55,380.99,297.72,380.76,297.85z"/>
							<g>
								<path class="st7" d="M380.76,296.9c0.46,0.26,0.46,0.69,0.01,0.95l-8.31,4.83c-0.45,0.26-1.18,0.26-1.64,0l-8.37-4.83
									c-0.45-0.26-0.45-0.69-0.01-0.95l8.31-4.83c0.46-0.26,1.19-0.26,1.64,0L380.76,296.9z"/>
							</g>
						</g>
						<g class="st3">
							<path class="st2" d="M371.88,305.65l-8.31,4.83c-0.45,0.26-1.18,0.26-1.63,0l-8.37-4.83c-0.23-0.13-0.35-0.31-0.35-0.48
								l0,0.97c0,0.17,0.11,0.35,0.34,0.48l8.37,4.83c0.45,0.26,1.18,0.26,1.63,0l8.31-4.83c0.22-0.13,0.34-0.3,0.34-0.47l0-0.97
								C372.22,305.34,372.11,305.52,371.88,305.65z"/>
							<g>
								<path class="st7" d="M371.88,304.7c0.45,0.26,0.44,0.69,0,0.95l-8.31,4.83c-0.45,0.26-1.18,0.26-1.63,0l-8.37-4.83
									c-0.46-0.26-0.46-0.69-0.01-0.95l8.31-4.83c0.45-0.26,1.18-0.26,1.64,0L371.88,304.7z"/>
							</g>
						</g>
						<g class="st3">
							<path class="st2" d="M354.96,308.84l-8.31,4.83c-0.45,0.26-1.18,0.26-1.63,0l-8.37-4.83c-0.23-0.13-0.34-0.3-0.34-0.47
								l0,0.97c0,0.17,0.11,0.34,0.34,0.47l8.37,4.83c0.45,0.26,1.18,0.26,1.63,0l8.31-4.83c0.23-0.13,0.34-0.3,0.34-0.47l0-0.97
								C355.3,308.53,355.18,308.71,354.96,308.84z"/>
							<g>
								<path class="st7" d="M354.96,307.89c0.45,0.26,0.45,0.68,0,0.95l-8.31,4.83c-0.45,0.26-1.18,0.26-1.63,0l-8.37-4.83
									c-0.45-0.26-0.45-0.68,0-0.95l8.31-4.83c0.45-0.26,1.18-0.26,1.63,0L354.96,307.89z"/>
							</g>
						</g>
						<g class="st3">
							<path class="st2" d="M335.3,310.22l-8.11,4.71c-0.51,0.3-1.34,0.29-1.84,0l-10.81-6.24c-0.26-0.15-0.39-0.34-0.39-0.54
								l0,0.97c0,0.19,0.13,0.39,0.39,0.54l10.81,6.24c0.5,0.29,1.33,0.3,1.84,0l8.11-4.71c0.25-0.15,0.38-0.34,0.38-0.53l0-0.97
								C335.67,309.89,335.55,310.08,335.3,310.22z"/>
							<g>
								<path class="st7" d="M335.29,309.16c0.5,0.29,0.51,0.77,0.01,1.07l-8.11,4.71c-0.51,0.3-1.34,0.29-1.84,0l-10.81-6.24
									c-0.51-0.29-0.51-0.77-0.01-1.07l8.11-4.71c0.51-0.3,1.33-0.3,1.84,0L335.29,309.16z"/>
							</g>
						</g>
						<g class="st3">
							<path class="st2" d="M408.09,301l-8.32,4.83c-0.45,0.26-1.18,0.26-1.63,0l-8.37-4.83c-0.23-0.13-0.35-0.31-0.35-0.48l0,0.97
								c0,0.17,0.11,0.35,0.35,0.48l8.37,4.83c0.46,0.26,1.19,0.26,1.63,0l8.32-4.83c0.22-0.13,0.33-0.3,0.33-0.47l0-0.97
								C408.42,300.71,408.31,300.88,408.09,301z"/>
							<g>
								<path class="st7" d="M408.07,300.06c0.46,0.26,0.46,0.69,0.01,0.95l-8.32,4.83c-0.45,0.26-1.18,0.26-1.63,0l-8.37-4.83
									c-0.46-0.26-0.46-0.69-0.01-0.95l8.32-4.84c0.45-0.26,1.18-0.26,1.63,0L408.07,300.06z"/>
							</g>
						</g>
						<g class="st3">
							<path class="st2" d="M392.2,304.46l-8.31,4.83c-0.45,0.26-1.18,0.26-1.64,0l-8.37-4.83c-0.23-0.13-0.34-0.31-0.34-0.48
								l0,0.97c0,0.17,0.11,0.35,0.34,0.48l8.37,4.83c0.46,0.26,1.2,0.26,1.64,0l8.31-4.83c0.23-0.13,0.34-0.3,0.34-0.47l0-0.97
								C392.54,304.15,392.43,304.33,392.2,304.46z"/>
							<g>
								<path class="st7" d="M392.2,303.51c0.46,0.26,0.46,0.69,0.01,0.95l-8.31,4.83c-0.45,0.26-1.18,0.26-1.64,0l-8.37-4.83
									c-0.45-0.26-0.45-0.69-0.01-0.95l8.31-4.83c0.45-0.26,1.19-0.26,1.64,0L392.2,303.51z"/>
							</g>
						</g>
						<g class="st3">
							<path class="st2" d="M383.28,312.22l-8.31,4.83c-0.45,0.26-1.19,0.26-1.64,0l-8.37-4.83c-0.23-0.13-0.35-0.31-0.35-0.48
								l0,0.97c0,0.17,0.11,0.35,0.34,0.48l8.37,4.83c0.45,0.26,1.19,0.26,1.64,0l8.31-4.83c0.22-0.13,0.33-0.3,0.33-0.47l0-0.97
								C383.61,311.92,383.5,312.09,383.28,312.22z"/>
							<g>
								<path class="st7" d="M383.27,311.27c0.45,0.26,0.45,0.69,0.01,0.95l-8.31,4.83c-0.45,0.26-1.19,0.26-1.64,0l-8.37-4.83
									c-0.46-0.26-0.46-0.69-0.01-0.95l8.31-4.83c0.45-0.26,1.18-0.26,1.64,0L383.27,311.27z"/>
							</g>
						</g>
						<g class="st3">
							<path class="st2" d="M366.26,315.36l-8.31,4.83c-0.45,0.26-1.19,0.26-1.64,0l-8.37-4.83c-0.23-0.13-0.35-0.31-0.34-0.48
								l0,0.97c0,0.17,0.11,0.35,0.34,0.48l8.37,4.83c0.45,0.26,1.19,0.26,1.64,0l8.31-4.83c0.22-0.13,0.34-0.3,0.34-0.47l0-0.97
								C366.6,315.06,366.48,315.23,366.26,315.36z"/>
							<g>
								<path class="st7" d="M366.25,314.41c0.45,0.26,0.46,0.69,0.01,0.95l-8.31,4.83c-0.45,0.26-1.19,0.26-1.64,0l-8.37-4.83
									c-0.46-0.26-0.46-0.69-0.01-0.95l8.31-4.83c0.45-0.26,1.18-0.26,1.64,0L366.25,314.41z"/>
							</g>
						</g>
						<g class="st3">
							<path class="st2" d="M347,316.88l-8.27,4.81c-0.46,0.27-1.21,0.26-1.67,0l-8.79-5.08c-0.23-0.14-0.35-0.31-0.35-0.49l0,0.97
								c0,0.18,0.12,0.35,0.35,0.49l8.79,5.08c0.46,0.26,1.21,0.27,1.67,0l8.27-4.81c0.23-0.13,0.34-0.31,0.34-0.48l0-0.97
								C347.34,316.58,347.23,316.75,347,316.88z"/>
							<g>
								<path class="st7" d="M346.99,315.91c0.46,0.26,0.47,0.7,0.01,0.97l-8.27,4.81c-0.46,0.27-1.21,0.26-1.67,0l-8.79-5.08
									c-0.46-0.27-0.47-0.7-0.01-0.97l8.27-4.81c0.46-0.27,1.21-0.27,1.67,0L346.99,315.91z"/>
							</g>
						</g>
						<g class="st3">
							<path class="st2" d="M354.03,326.24l-3.94,2.29c-0.33,0.19-0.87,0.19-1.21-0.01l-9.26-5.35c-0.17-0.1-0.25-0.22-0.25-0.35
								l0,0.97c0,0.13,0.08,0.25,0.25,0.35l9.26,5.35c0.34,0.19,0.88,0.2,1.21,0l3.94-2.29c0.16-0.1,0.24-0.22,0.24-0.34l0-0.97
								C354.27,326.02,354.19,326.14,354.03,326.24z"/>
							<g>
								<path class="st7" d="M354.02,325.54c0.34,0.19,0.35,0.51,0.01,0.7l-3.94,2.29c-0.33,0.19-0.87,0.19-1.21-0.01l-9.26-5.35
									c-0.34-0.19-0.34-0.5,0-0.7l3.94-2.29c0.33-0.19,0.86-0.19,1.2,0L354.02,325.54z"/>
							</g>
						</g>
						<g class="st3">
							<path class="st2" d="M434.24,306.53l-5.64,3.28c-0.33,0.19-0.87,0.19-1.2,0l-6.62-3.82c-0.17-0.1-0.25-0.22-0.25-0.35l0,0.97
								c0,0.13,0.08,0.25,0.25,0.35l6.62,3.82c0.34,0.19,0.87,0.19,1.2,0l5.64-3.28c0.17-0.1,0.25-0.22,0.25-0.35l0-0.97
								C434.49,306.31,434.41,306.43,434.24,306.53z"/>
							<g>
								<path class="st7" d="M434.24,305.83c0.34,0.19,0.34,0.5,0,0.7l-5.64,3.28c-0.33,0.19-0.87,0.19-1.2,0l-6.62-3.82
									c-0.33-0.19-0.34-0.5,0-0.7l5.64-3.28c0.33-0.19,0.87-0.19,1.2,0L434.24,305.83z"/>
							</g>
						</g>
						<g class="st3">
							<path class="st2" d="M425.74,311.48l-7.83,4.55c-0.58,0.34-1.53,0.34-2.11,0l-14.61-8.44c-0.3-0.17-0.45-0.4-0.45-0.62
								l0,0.97c0,0.23,0.15,0.45,0.45,0.62l14.61,8.44c0.59,0.34,1.53,0.34,2.11,0l7.83-4.55c0.29-0.17,0.43-0.39,0.44-0.61l0-0.97
								C426.17,311.09,426.03,311.31,425.74,311.48z"/>
							<g>
								<path class="st7" d="M425.73,310.25c0.59,0.34,0.59,0.89,0.01,1.22l-7.83,4.55c-0.58,0.34-1.53,0.34-2.11,0l-14.61-8.44
									c-0.59-0.34-0.6-0.89-0.01-1.23l7.83-4.55c0.58-0.34,1.53-0.33,2.12,0L425.73,310.25z"/>
							</g>
						</g>
						<g class="st3">
							<path class="st2" d="M403.64,311.06l-8.31,4.83c-0.45,0.26-1.18,0.26-1.64,0l-8.37-4.83c-0.23-0.13-0.34-0.31-0.34-0.48
								l0,0.97c0,0.17,0.11,0.35,0.34,0.48l8.37,4.83c0.46,0.26,1.19,0.26,1.64,0l8.31-4.83c0.23-0.13,0.34-0.3,0.34-0.47l0-0.97
								C403.98,310.76,403.87,310.93,403.64,311.06z"/>
							<g>
								<path class="st7" d="M403.64,310.11c0.46,0.26,0.46,0.69,0.01,0.95l-8.31,4.83c-0.45,0.26-1.18,0.26-1.64,0l-8.37-4.83
									c-0.45-0.26-0.45-0.69-0.01-0.95l8.31-4.83c0.45-0.26,1.19-0.26,1.64,0L403.64,310.11z"/>
							</g>
						</g>
						<g class="st3">
							<path class="st2" d="M394.66,318.8l-8.31,4.83c-0.45,0.26-1.19,0.26-1.64,0l-8.37-4.83c-0.23-0.13-0.35-0.31-0.35-0.48
								l0,0.97c0,0.17,0.11,0.35,0.34,0.48l8.37,4.83c0.45,0.26,1.19,0.26,1.64,0l8.31-4.83c0.22-0.13,0.33-0.3,0.33-0.47l0-0.97
								C395,318.5,394.89,318.67,394.66,318.8z"/>
							<g>
								<path class="st7" d="M394.66,317.85c0.45,0.26,0.45,0.69,0.01,0.95l-8.31,4.83c-0.45,0.26-1.19,0.26-1.64,0l-8.37-4.83
									c-0.46-0.26-0.46-0.69-0.01-0.95l8.31-4.83c0.45-0.26,1.18-0.26,1.64,0L394.66,317.85z"/>
							</g>
						</g>
						<g class="st3">
							<path class="st2" d="M415.08,317.67l-8.31,4.83c-0.45,0.26-1.18,0.26-1.64,0l-8.37-4.83c-0.23-0.13-0.34-0.3-0.34-0.48
								l0,0.97c0,0.17,0.11,0.35,0.34,0.48l8.37,4.83c0.46,0.26,1.2,0.26,1.64,0l8.31-4.83c0.23-0.13,0.34-0.3,0.34-0.47l0-0.97
								C415.42,317.36,415.31,317.53,415.08,317.67z"/>
							<g>
								<path class="st7" d="M415.08,316.72c0.46,0.26,0.46,0.69,0.01,0.95l-8.31,4.83c-0.45,0.26-1.18,0.26-1.64,0l-8.37-4.83
									c-0.45-0.26-0.45-0.69-0.01-0.95l8.31-4.83c0.45-0.26,1.19-0.26,1.64,0L415.08,316.72z"/>
							</g>
						</g>
						<g class="st3">
							<path class="st2" d="M404.02,324.1l-8.5,4.94c-0.39,0.23-1.05,0.23-1.44,0l-6.37-3.68c-0.2-0.12-0.31-0.27-0.31-0.43l0,0.97
								c0,0.15,0.1,0.31,0.31,0.43l6.37,3.68c0.4,0.23,1.05,0.23,1.44,0l8.5-4.94c0.2-0.12,0.3-0.27,0.3-0.42l0-0.97
								C404.32,323.83,404.22,323.98,404.02,324.1z"/>
							<g>
								<path class="st7" d="M404.02,323.25c0.4,0.23,0.4,0.61,0,0.84l-8.5,4.94c-0.39,0.23-1.05,0.23-1.44,0l-6.37-3.68
									c-0.4-0.23-0.41-0.61-0.01-0.84l8.5-4.94c0.4-0.23,1.06-0.23,1.46,0L404.02,323.25z"/>
							</g>
						</g>
						<g class="st3">
							<path class="st2" d="M392.26,330.93l-7.36,4.28c-0.71,0.41-1.88,0.41-2.6,0l-22.67-13.09c-0.36-0.21-0.54-0.48-0.54-0.76
								l0,0.97c0,0.27,0.18,0.55,0.54,0.76l22.67,13.09c0.72,0.41,1.89,0.41,2.6,0l7.36-4.28c0.35-0.21,0.53-0.48,0.53-0.75l0-0.97
								C392.79,330.45,392.61,330.72,392.26,330.93z"/>
							<g>
								<path class="st7" d="M392.25,329.42c0.72,0.41,0.72,1.09,0.01,1.51l-7.36,4.28c-0.71,0.41-1.88,0.41-2.6,0l-22.67-13.09
									c-0.72-0.41-0.72-1.09-0.01-1.51l7.36-4.28c0.71-0.41,1.88-0.41,2.6,0L392.25,329.42z"/>
							</g>
						</g>
						<g class="st3">
							<path class="st2" d="M370.37,330.38l-8.27,4.81c-0.46,0.27-1.22,0.26-1.67,0l-8.79-5.08c-0.23-0.14-0.35-0.31-0.35-0.49
								l0,0.97c0,0.18,0.12,0.35,0.35,0.49l8.79,5.08c0.46,0.26,1.21,0.27,1.67,0l8.27-4.81c0.23-0.13,0.34-0.31,0.34-0.48l0-0.97
								C370.71,330.07,370.6,330.25,370.37,330.38z"/>
							<g>
								<path class="st7" d="M370.37,329.41c0.46,0.26,0.47,0.7,0.01,0.97l-8.27,4.81c-0.46,0.27-1.22,0.26-1.67,0l-8.79-5.08
									c-0.47-0.27-0.47-0.7-0.01-0.97l8.27-4.81c0.46-0.27,1.21-0.27,1.67,0L370.37,329.41z"/>
							</g>
						</g>
						<g class="st3">
							<path class="st2" d="M377.26,339.65l-3.94,2.29c-0.33,0.19-0.87,0.19-1.2,0l-9.27-5.35c-0.17-0.1-0.25-0.22-0.25-0.35l0,0.97
								c0,0.13,0.08,0.26,0.25,0.35l9.27,5.35c0.33,0.19,0.87,0.19,1.2,0l3.94-2.29c0.16-0.1,0.25-0.22,0.25-0.34l0-0.97
								C377.5,339.43,377.42,339.55,377.26,339.65z"/>
							<g>
								<path class="st7" d="M377.25,338.95c0.33,0.19,0.34,0.5,0,0.7l-3.94,2.29c-0.33,0.19-0.87,0.19-1.2,0l-9.27-5.35
									c-0.33-0.19-0.34-0.5,0-0.7l3.94-2.29c0.33-0.19,0.87-0.19,1.2,0L377.25,338.95z"/>
							</g>
						</g>
					</g>
				</g>
				<path class="st2" d="M285.36,207.93l-3.62,2.09h-1.23l0.01,0.98c0.01,0.11,0.07,0.22,0.21,0.3l144.86,83.63
					c0.34,0.19,0.93,0.17,1.32-0.06l4.53-2.62L285.36,207.93z"/>
				<path class="st7" d="M425.59,294.03l-144.86-83.63c-0.34-0.19-0.3-0.54,0.09-0.76l4.53-2.62l146.08,84.34l-4.53,2.62
					C426.52,294.2,425.93,294.22,425.59,294.03z"/>
				<g>
					<g class="st3">
						<path class="st7" d="M470.06,144.67L294.02,43.03c-1.07-0.62-2.1-0.7-2.92-0.33l-5.12,2.31c0.82-0.37,1.84-0.29,2.92,0.33
							l176.04,101.64c2.32,1.34,4,4.7,3.73,7.52l-13.81,146.42c-0.14,1.51-0.81,2.54-1.77,2.97l5.12-2.31
							c0.95-0.43,1.62-1.47,1.77-2.97l13.81-146.42C474.06,149.37,472.39,146.01,470.06,144.67z"/>
						<g>
							<path class="st2" d="M464.95,146.98c2.32,1.34,4,4.7,3.73,7.52l-13.81,146.42c-0.26,2.8-2.37,3.98-4.69,2.64L274.14,201.92
								c-2.32-1.34-3.99-4.7-3.73-7.5L284.22,48c0.26-2.81,2.36-4,4.69-2.65L464.95,146.98z"/>
						</g>
						<g>
							<path class="st8" d="M462.24,149.06c2.22,1.28,3.82,4.49,3.57,7.18l-12.03,127.45c-0.25,2.68-2.26,3.81-4.49,2.52
								L278.73,187.7c-2.22-1.28-3.82-4.49-3.56-7.17l12.03-127.45c0.25-2.69,2.26-3.82,4.48-2.54L462.24,149.06z"/>
						</g>
						<g>
							<g>
								<polygon class="st9" points="363.13,153.19 298.88,114.23 298.35,119.47 362.6,158.42 								"/>
								<g>
									<path class="st10" d="M310.02,81.94l-4.12-2.5c-0.58-0.35-1.11,0-1.19,0.78l-3.09,30.57c-0.08,0.78,0.33,1.69,0.9,2.04
										l4.12,2.5c0.58,0.35,1.11,0,1.19-0.78l3.09-30.57C311,83.2,310.6,82.29,310.02,81.94z"/>
									<path class="st10" d="M318.63,87.15l-4.12-2.5c-0.58-0.35-1.11,0-1.19,0.78L310.23,116c-0.08,0.78,0.33,1.69,0.9,2.04
										l4.13,2.5c0.58,0.35,1.11,0,1.19-0.78l3.09-30.57C319.61,88.42,319.2,87.5,318.63,87.15z"/>
									<path class="st10" d="M327.23,92.37l-4.12-2.5c-0.58-0.35-1.11,0-1.19,0.78l-3.09,30.57c-0.08,0.78,0.33,1.69,0.9,2.04
										l4.12,2.5c0.58,0.35,1.11,0,1.19-0.78l3.09-30.57C328.22,93.64,327.81,92.72,327.23,92.37z"/>
									<path class="st10" d="M335.84,97.59l-4.13-2.5c-0.58-0.35-1.11,0-1.19,0.78l-3.09,30.57c-0.08,0.78,0.33,1.69,0.9,2.04
										l4.12,2.5c0.58,0.35,1.11,0,1.19-0.78l3.09-30.57C336.82,98.86,336.42,97.94,335.84,97.59z"/>
									<path class="st10" d="M344.45,102.81l-4.12-2.5c-0.58-0.35-1.11,0-1.19,0.78l-3.09,30.57c-0.08,0.78,0.33,1.69,0.9,2.04
										l4.13,2.5c0.58,0.35,1.11,0,1.19-0.78l3.09-30.57C345.43,104.07,345.02,103.16,344.45,102.81z"/>
									<path class="st10" d="M353.05,108.03l-4.12-2.5c-0.58-0.35-1.11,0-1.19,0.78l-3.09,30.57c-0.08,0.78,0.33,1.69,0.9,2.04
										l4.12,2.5c0.58,0.35,1.11,0,1.19-0.78l3.09-30.57C354.04,109.29,353.63,108.38,353.05,108.03z"/>
									<path class="st10" d="M361.66,113.25l-4.12-2.5c-0.58-0.35-1.11,0-1.19,0.78l-3.09,30.57c-0.08,0.78,0.33,1.69,0.9,2.04
										l4.12,2.5c0.58,0.35,1.11,0,1.19-0.78l3.09-30.57C362.64,114.51,362.24,113.6,361.66,113.25z"/>
								</g>
							</g>
							<g>
								<polygon class="st9" points="357.91,201.4 293.67,162.45 293.14,167.68 357.38,206.63 								"/>
								<g>
									<path class="st10" d="M304.81,130.15l-4.12-2.5c-0.58-0.35-1.11,0-1.19,0.78l-3.09,30.57c-0.08,0.78,0.33,1.69,0.9,2.04
										l4.12,2.5c0.58,0.35,1.11,0,1.19-0.78l3.09-30.57C305.79,131.41,305.38,130.5,304.81,130.15z"/>
									<path class="st10" d="M313.41,135.37l-4.12-2.5c-0.58-0.35-1.11,0-1.19,0.78l-3.09,30.57c-0.08,0.78,0.33,1.69,0.9,2.04
										l4.13,2.5c0.58,0.35,1.11,0,1.19-0.78l3.09-30.57C314.4,136.63,313.99,135.72,313.41,135.37z"/>
									<path class="st10" d="M322.02,140.59l-4.12-2.5c-0.58-0.35-1.11,0-1.19,0.78l-3.09,30.57c-0.08,0.78,0.33,1.69,0.9,2.04
										l4.12,2.5c0.58,0.35,1.11,0,1.19-0.78l3.09-30.57C323,141.85,322.6,140.94,322.02,140.59z"/>
									<path class="st10" d="M330.63,145.8l-4.13-2.5c-0.58-0.35-1.11,0-1.19,0.78l-3.09,30.57c-0.08,0.78,0.33,1.69,0.9,2.04
										l4.12,2.5c0.58,0.35,1.11,0,1.19-0.78l3.09-30.57C331.61,147.07,331.2,146.15,330.63,145.8z"/>
									<path class="st10" d="M339.23,151.02l-4.12-2.5c-0.58-0.35-1.11,0-1.19,0.78l-3.09,30.57c-0.08,0.78,0.33,1.69,0.9,2.04
										l4.13,2.5c0.58,0.35,1.11,0,1.19-0.78l3.09-30.57C340.22,152.29,339.81,151.37,339.23,151.02z"/>
									<path class="st10" d="M347.84,156.24l-4.12-2.5c-0.58-0.35-1.11,0-1.19,0.78l-3.09,30.57c-0.08,0.78,0.33,1.69,0.9,2.04
										l4.12,2.5c0.58,0.35,1.11,0,1.19-0.78l3.09-30.57C348.82,157.51,348.42,156.59,347.84,156.24z"/>
									<path class="st10" d="M356.45,161.46l-4.12-2.5c-0.58-0.35-1.11,0-1.19,0.78l-3.09,30.57c-0.08,0.78,0.33,1.69,0.9,2.04
										l4.12,2.5c0.58,0.35,1.11,0,1.19-0.78l3.09-30.57C357.43,162.72,357.02,161.81,356.45,161.46z"/>
								</g>
							</g>
						</g>
						<g>
							<g>
								<polygon class="st9" points="445.95,201.15 381.71,162.2 381.18,167.43 445.42,206.38 								"/>
								<g>
									<path class="st10" d="M392.85,129.9l-4.12-2.5c-0.58-0.35-1.11,0-1.19,0.78l-3.09,30.57c-0.08,0.78,0.33,1.69,0.9,2.04
										l4.12,2.5c0.58,0.35,1.11,0,1.19-0.78l3.09-30.57C393.83,131.16,393.43,130.25,392.85,129.9z"/>
									<path class="st10" d="M401.46,135.12l-4.12-2.5c-0.58-0.35-1.11,0-1.19,0.78l-3.09,30.57c-0.08,0.78,0.33,1.69,0.9,2.04
										l4.13,2.5c0.58,0.35,1.11,0,1.19-0.78l3.09-30.57C402.44,136.38,402.03,135.47,401.46,135.12z"/>
									<path class="st10" d="M410.06,140.33l-4.12-2.5c-0.58-0.35-1.11,0-1.19,0.78l-3.09,30.57c-0.08,0.78,0.33,1.69,0.9,2.04
										l4.12,2.5c0.58,0.35,1.11,0,1.19-0.78l3.09-30.57C411.04,141.6,410.64,140.68,410.06,140.33z"/>
									<path class="st10" d="M418.67,145.55l-4.13-2.5c-0.58-0.35-1.11,0-1.19,0.78l-3.09,30.57c-0.08,0.78,0.33,1.69,0.9,2.04
										l4.12,2.5c0.58,0.35,1.11,0,1.19-0.78l3.09-30.57C419.65,146.82,419.25,145.9,418.67,145.55z"/>
									<path class="st10" d="M427.28,150.77l-4.12-2.5c-0.58-0.35-1.11,0-1.19,0.78l-3.09,30.57c-0.08,0.78,0.33,1.69,0.9,2.04
										l4.13,2.5c0.58,0.35,1.11,0,1.19-0.78l3.09-30.57C428.26,152.04,427.85,151.12,427.28,150.77z"/>
									<path class="st10" d="M435.88,155.99l-4.12-2.5c-0.58-0.35-1.11,0-1.19,0.78l-3.09,30.57c-0.08,0.78,0.33,1.69,0.9,2.04
										l4.12,2.5c0.58,0.35,1.11,0,1.19-0.78l3.09-30.57C436.86,157.25,436.46,156.34,435.88,155.99z"/>
									<path class="st10" d="M444.49,161.21l-4.12-2.5c-0.58-0.35-1.11,0-1.19,0.78l-3.09,30.57c-0.08,0.78,0.33,1.69,0.9,2.04
										l4.12,2.5c0.58,0.35,1.11,0,1.19-0.78l3.09-30.57C445.47,162.47,445.07,161.56,444.49,161.21z"/>
								</g>
							</g>
							<g>
								<polygon class="st9" points="440.74,249.36 376.5,210.41 375.97,215.64 440.21,254.6 								"/>
								<g>
									<path class="st10" d="M387.63,178.11l-4.12-2.5c-0.58-0.35-1.11,0-1.19,0.78l-3.09,30.57c-0.08,0.78,0.33,1.69,0.9,2.04
										l4.12,2.5c0.58,0.35,1.11,0,1.19-0.78l3.09-30.57C388.62,179.38,388.21,178.46,387.63,178.11z"/>
									<path class="st10" d="M396.24,183.33l-4.12-2.5c-0.58-0.35-1.11,0-1.19,0.78l-3.09,30.57c-0.08,0.78,0.33,1.69,0.9,2.04
										l4.13,2.5c0.58,0.35,1.11,0,1.19-0.78l3.09-30.57C397.22,184.59,396.82,183.68,396.24,183.33z"/>
									<path class="st10" d="M404.85,188.55l-4.12-2.5c-0.58-0.35-1.11,0-1.19,0.78l-3.09,30.57c-0.08,0.78,0.33,1.69,0.9,2.04
										l4.12,2.5c0.58,0.35,1.11,0,1.19-0.78l3.09-30.57C405.83,189.81,405.43,188.9,404.85,188.55z"/>
									<path class="st10" d="M413.46,193.77l-4.13-2.5c-0.58-0.35-1.11,0-1.19,0.78l-3.09,30.57c-0.08,0.78,0.33,1.69,0.9,2.04
										l4.12,2.5c0.58,0.35,1.11,0,1.19-0.78l3.09-30.57C414.44,195.03,414.03,194.12,413.46,193.77z"/>
									<path class="st10" d="M422.06,198.98l-4.12-2.5c-0.58-0.35-1.11,0-1.19,0.78l-3.09,30.57c-0.08,0.78,0.33,1.69,0.9,2.04
										l4.13,2.5c0.58,0.35,1.11,0,1.19-0.78l3.09-30.57C423.04,200.25,422.64,199.33,422.06,198.98z"/>
									<path class="st10" d="M430.67,204.2l-4.12-2.5c-0.58-0.35-1.11,0-1.19,0.78l-3.09,30.57c-0.08,0.78,0.33,1.69,0.9,2.04
										l4.12,2.5c0.58,0.35,1.11,0,1.19-0.78l3.09-30.57C431.65,205.47,431.25,204.55,430.67,204.2z"/>
									<path class="st10" d="M439.28,209.42l-4.12-2.5c-0.58-0.35-1.11,0-1.19,0.78l-3.09,30.57c-0.08,0.78,0.33,1.69,0.9,2.04
										l4.12,2.5c0.58,0.35,1.11,0,1.19-0.78l3.09-30.57C440.26,210.69,439.85,209.77,439.28,209.42z"/>
								</g>
							</g>
						</g>
					</g>
				</g>
			</g>
		</g>
	</g>
	<g>
		<g>
			<g>
				<polygon class="st5" points="169.74,23.5 174.02,21.33 237.34,57.89 233.06,60.06 				"/>
				<polygon class="st6" points="233.06,132.73 237.34,130.56 237.34,57.89 233.06,60.06 				"/>
				<polygon class="st11" points="233.06,132.73 169.74,96.17 169.74,23.5 233.06,60.06 				"/>
				<path class="st12" d="M233.06,77.39v55.34l-63.33-36.56V70.1c0.56-0.41,1.18-0.73,1.83-0.96c4-1.46,9.14-0.27,14.25,1.74
					c5.1,2,10.3,4.81,15.39,6.7c9.68,3.6,18.83,3.78,26.35,0.84C229.24,77.77,231.06,77.01,233.06,77.39z"/>
				<path class="st13" d="M217.57,87.45c0,10.25-7.24,14.38-16.17,9.22c-8.93-5.16-16.17-17.64-16.17-27.89
					c0-10.25,7.24-14.38,16.17-9.22C210.33,64.71,217.57,77.2,217.57,87.45z"/>
				<path class="st14" d="M211.51,83.95c0,6.41-4.53,8.99-10.11,5.77c-5.59-3.23-10.11-11.04-10.11-17.45
					c0-6.41,4.53-8.99,10.11-5.77C206.99,69.73,211.51,77.54,211.51,83.95z"/>
				<g>
					<path class="st15" d="M215.14,108.99l-27.47-15.86c-0.48-0.28-0.87-1.02-0.87-1.66l0,0c0-0.64,0.39-0.93,0.87-0.66l27.47,15.86
						c0.48,0.28,0.87,1.02,0.87,1.66l0,0C216,108.97,215.61,109.26,215.14,108.99z"/>
					<path class="st15" d="M215.14,112.95l-27.47-15.86c-0.48-0.28-0.87-1.02-0.87-1.66l0,0c0-0.64,0.39-0.93,0.87-0.66l27.47,15.86
						c0.48,0.28,0.87,1.02,0.87,1.66l0,0C216,112.93,215.61,113.23,215.14,112.95z"/>
					<path class="st15" d="M215.14,116.91l-27.47-15.86c-0.48-0.28-0.87-1.02-0.87-1.66l0,0c0-0.64,0.39-0.93,0.87-0.66l27.47,15.86
						c0.48,0.28,0.87,1.02,0.87,1.66l0,0C216,116.9,215.61,117.19,215.14,116.91z"/>
				</g>
				<path class="st15" d="M208.31,59.34l-13.82-7.98c-1.81-1.04-3.28-3.85-3.28-6.26l0,0c0-2.41,1.47-3.52,3.28-2.48l13.82,7.98
					c1.81,1.04,3.28,3.85,3.28,6.26l0,0C211.58,59.28,210.12,60.39,208.31,59.34z"/>
			</g>
			<g>
				<polygon class="st5" points="305.23,143.85 309.51,141.69 246.18,105.13 241.9,107.29 				"/>
				<polygon class="st6" points="305.23,216.52 309.51,214.35 309.51,141.69 305.23,143.85 				"/>
				<polygon class="st16" points="305.23,216.52 241.9,179.96 241.9,107.29 305.23,143.86 				"/>
				<polygon class="st13" points="305.23,143.85 305.23,216.52 241.9,179.96 241.9,154.41 263.28,150.58 265.74,135.84 
					289.76,145.55 293.11,136.86 				"/>
				<g>
					<path class="st15" d="M281.64,186.66l-13.24-7.64c-1.47-0.85-2.67-3.13-2.67-5.1l0,0c0-1.96,1.19-2.87,2.67-2.02l13.24,7.64
						c1.47,0.85,2.67,3.13,2.67,5.1l0,0C284.31,186.6,283.12,187.51,281.64,186.66z"/>
					<path class="st15" d="M288.38,200.03l-26.71-15.42c-1.47-0.85-2.67-3.13-2.67-5.1l0,0c0-1.96,1.19-2.87,2.67-2.02l26.71,15.42
						c1.47,0.85,2.67,3.13,2.67,5.1l0,0C291.05,199.97,289.85,200.88,288.38,200.03z"/>
				</g>
				<g>
					<path class="st17" d="M264.65,120.43c-3.01,0.33-5.95,1.3-7.11,4.42c-0.77,2.08-0.66,4.9-1.04,7.33
						c-0.93,5.91-4.83,9.23-9.72,9.77c-1.6,0.18-3.32,0.08-4.88,0.35v-35.01L264.65,120.43z"/>
				</g>
				<polygon class="st18" points="305.23,149.94 305.23,167.29 273.56,171.39 261.03,156.39 241.9,165.18 241.9,162.77 
					255.96,144.63 275.03,155.64 				"/>
			</g>
			<g>
				<polygon class="st5" points="203.54,136 207.82,133.84 271.15,170.4 266.87,172.57 				"/>
				<polygon class="st6" points="266.87,245.24 271.15,243.06 271.15,170.4 266.87,172.57 				"/>
				<polygon class="st12" points="266.87,245.23 203.54,208.67 203.54,136 266.87,172.57 				"/>
				<path d="M266.87,220.03v25.21l-63.33-36.56v-25.21c8.55-3.34,19.61-1.95,31.67,5.01C247.27,195.44,258.32,206.81,266.87,220.03z
					"/>
				<path class="st15" d="M246.08,190.04l-21.75-12.56c-2.09-1.21-3.78-4.44-3.78-7.23l0,0c0-2.79,1.69-4.07,3.78-2.86l21.75,12.56
					c2.09,1.21,3.78,4.44,3.78,7.23l0,0C249.86,189.97,248.17,191.25,246.08,190.04z"/>
				<g>
					<path class="st15" d="M248.94,170.46l-27.47-15.86c-0.48-0.28-0.87-1.02-0.87-1.66l0,0c0-0.64,0.39-0.93,0.87-0.66l27.47,15.86
						c0.48,0.28,0.87,1.02,0.87,1.66l0,0C249.81,170.44,249.42,170.74,248.94,170.46z"/>
					<path class="st15" d="M248.94,174.42l-27.47-15.86c-0.48-0.28-0.87-1.02-0.87-1.66l0,0c0-0.64,0.39-0.93,0.87-0.66l27.47,15.86
						c0.48,0.28,0.87,1.02,0.87,1.66l0,0C249.81,174.41,249.42,174.7,248.94,174.42z"/>
					<path class="st15" d="M248.94,178.39l-27.47-15.86c-0.48-0.28-0.87-1.02-0.87-1.66v0c0-0.64,0.39-0.93,0.87-0.66l27.47,15.86
						c0.48,0.28,0.87,1.02,0.87,1.66l0,0C249.81,178.37,249.42,178.66,248.94,178.39z"/>
				</g>
				<g>
					<path class="st15" d="M258.46,220.72l-8.19-4.73c-0.25-0.15-0.46-0.54-0.46-0.88v-0.57c0-0.34,0.21-0.49,0.46-0.35l8.19,4.73
						c0.25,0.15,0.46,0.54,0.46,0.88v0.57C258.92,220.71,258.71,220.86,258.46,220.72z"/>
					<path class="st15" d="M258.46,223.8l-8.19-4.73c-0.25-0.15-0.46-0.54-0.46-0.88v-0.57c0-0.34,0.21-0.49,0.46-0.35l8.19,4.73
						c0.25,0.15,0.46,0.54,0.46,0.88v0.57C258.92,223.79,258.71,223.94,258.46,223.8z"/>
					<path class="st15" d="M258.46,226.88l-8.19-4.73c-0.25-0.15-0.46-0.54-0.46-0.88v-0.57c0-0.34,0.21-0.49,0.46-0.35l8.19,4.73
						c0.25,0.15,0.46,0.54,0.46,0.88v0.57C258.92,226.87,258.71,227.02,258.46,226.88z"/>
				</g>
				<g>
					<path class="st15" d="M220.14,206.55l-8.19-4.73c-0.25-0.15-0.46-0.54-0.46-0.88v-0.57c0-0.34,0.21-0.49,0.46-0.35l8.19,4.73
						c0.25,0.15,0.46,0.54,0.46,0.88v0.57C220.6,206.55,220.39,206.7,220.14,206.55z"/>
					<path class="st15" d="M220.14,209.64l-8.19-4.73c-0.25-0.15-0.46-0.54-0.46-0.88v-0.57c0-0.34,0.21-0.49,0.46-0.35l8.19,4.73
						c0.25,0.15,0.46,0.54,0.46,0.88v0.57C220.6,209.63,220.39,209.78,220.14,209.64z"/>
					<path class="st15" d="M220.14,212.72l-8.19-4.73c-0.25-0.15-0.46-0.54-0.46-0.88v-0.57c0-0.34,0.21-0.49,0.46-0.35l8.19,4.73
						c0.25,0.15,0.46,0.54,0.46,0.88v0.57C220.6,212.71,220.39,212.86,220.14,212.72z"/>
				</g>
				<path class="st19" d="M242.45,186.27l-14.49-8.37c-1.39-0.8-2.52-2.96-2.52-4.82l0,0c0-1.86,1.13-2.71,2.52-1.91l14.49,8.37
					c1.39,0.8,2.52,2.96,2.52,4.82l0,0C244.97,186.22,243.84,187.07,242.45,186.27z"/>
				<g>
					<path class="st20" d="M235.72,214.58l-1.03-0.6c-3.66-2.11-6.62-7.77-6.62-12.65v-5.29c0-4.87,2.96-7.12,6.62-5l1.03,0.6
						c3.66,2.11,6.62,7.77,6.62,12.65v5.29C242.34,214.46,239.38,216.7,235.72,214.58z"/>
					<polygon class="st20" points="236.93,210.47 236.93,227.95 233.48,225.96 233.48,208.48 					"/>
				</g>
			</g>
			<g>
				<polygon class="st5" points="174.6,91.53 178.88,89.36 115.56,52.8 111.27,54.97 				"/>
				<polygon class="st6" points="178.88,89.36 174.6,91.53 174.6,164.2 178.88,162.03 				"/>
				<polygon class="st21" points="174.6,164.2 111.27,127.64 111.27,54.97 174.6,91.53 				"/>
				<polygon class="st22" points="121.55,60.9 121.55,133.57 111.27,127.64 111.27,54.97 				"/>
				<path class="st23" d="M151.02,89.92l-13.24-7.64c-1.47-0.85-2.67-3.13-2.67-5.09l0,0c0-1.96,1.19-2.87,2.67-2.02l13.24,7.64
					c1.47,0.85,2.67,3.13,2.67,5.1l0,0C153.69,89.87,152.49,90.77,151.02,89.92z"/>
				<path class="st23" d="M157.76,103.29l-26.71-15.42c-1.47-0.85-2.67-3.13-2.67-5.1l0,0c0-1.96,1.19-2.87,2.67-2.02l26.71,15.42
					c1.47,0.85,2.67,3.13,2.67,5.1l0,0C160.42,103.24,159.23,104.15,157.76,103.29z"/>
				<g>
					<path class="st23" d="M142.63,142.48l-11.24-6.49c-1-0.58-1.82-2.14-1.82-3.47l0,0c0-1.34,0.81-1.95,1.82-1.37l11.24,6.49
						c1,0.58,1.82,2.14,1.82,3.47l0,0C144.45,142.44,143.63,143.06,142.63,142.48z"/>
					<path class="st23" d="M158.89,151.87l-11.24-6.49c-1-0.58-1.82-2.14-1.82-3.47l0,0c0-1.34,0.81-1.95,1.82-1.37l11.24,6.49
						c1,0.58,1.82,2.14,1.82,3.47l0,0C160.71,151.83,159.89,152.45,158.89,151.87z"/>
				</g>
				<g>
					<polygon class="st23" points="142.98,130.91 135.16,95.04 149.05,108.56 					"/>
					<polygon class="st15" points="142.98,130.91 142.98,98.27 149.05,106.95 153.73,110.78 					"/>
				</g>
			</g>
			<g>
				<polygon class="st5" points="133.15,125.36 137.43,123.2 200.76,159.76 196.48,161.92 				"/>
				<polygon class="st6" points="196.48,161.92 200.76,159.76 200.76,232.42 196.48,234.59 				"/>
				<polygon class="st24" points="196.48,234.59 133.15,198.03 133.15,125.36 196.48,161.93 				"/>
				<polygon class="st25" points="196.48,161.92 196.48,185.16 195.43,187.6 174.58,174.27 168.01,181.83 150.21,171.54 
					133.15,171.68 133.15,125.36 				"/>
				<polygon class="st26" points="196.48,199.53 196.48,206.68 176.84,202.24 152.61,181.36 133.15,184.95 133.15,158.51 
					157.68,167.47 171.11,184.92 185.1,186.76 				"/>
				<g>
					<path class="st5" d="M163.89,169.88c-6.73-3.88-12.18-0.78-12.18,6.94c0,7.72,5.45,17.12,12.18,21.01
						c6.72,3.88,12.18,0.77,12.18-6.94C176.07,183.17,170.62,173.76,163.89,169.88z M163.89,194.52c-5.14-2.97-9.3-10.15-9.3-16.04
						c0-5.89,4.16-8.27,9.3-5.3c5.13,2.96,9.3,10.14,9.3,16.04C173.19,195.11,169.03,197.49,163.89,194.52z"/>
					<polygon class="st5" points="171.49,188.24 159.82,173.78 159.82,189.23 					"/>
				</g>
				<g>
					<path class="st15" d="M168.28,165.19l-26.27-15.17c-1.56-0.9-2.83-3.32-2.83-5.4l0,0c0-2.08,1.27-3.04,2.83-2.14l26.27,15.17
						c1.56,0.9,2.83,3.32,2.83,5.4l0,0C171.11,165.14,169.84,166.09,168.28,165.19z"/>
					<path class="st15" d="M187.62,176.36l-10.31-5.95c-1.56-0.9-2.83-3.32-2.83-5.4l0,0c0-2.08,1.27-3.04,2.83-2.14l10.31,5.95
						c1.56,0.9,2.83,3.32,2.83,5.4l0,0C190.45,176.3,189.18,177.26,187.62,176.36z"/>
				</g>
				<g>
					<path class="st23" d="M161.35,201.04l26.27,15.17c1.56,0.9,2.83,3.32,2.83,5.4l0,0c0,2.08-1.27,3.04-2.83,2.14l-26.27-15.17
						c-1.56-0.9-2.83-3.32-2.83-5.4l0,0C158.52,201.1,159.79,200.14,161.35,201.04z"/>
					<path class="st23" d="M142.01,189.88l10.31,5.95c1.56,0.9,2.83,3.32,2.83,5.4l0,0c0,2.08-1.27,3.04-2.83,2.14l-10.31-5.95
						c-1.56-0.9-2.83-3.32-2.83-5.4l0,0C139.18,189.93,140.45,188.97,142.01,189.88z"/>
				</g>
			</g>
		</g>
		<g>
			<path class="st1" d="M105.1,405.57c-13.03,7.52-34.23,7.49-47.34-0.09c-13.11-7.57-13.18-19.81-0.15-27.33
				c13.03-7.52,34.23-7.49,47.34,0.09C118.07,385.81,118.14,398.04,105.1,405.57z"/>
			<path class="st27" d="M56.54,218.57c0.14-0.48,0.25-0.96,0.35-1.44c0.27-1.38,0.57-2.97,0.45-4.38c-0.11-1.26-0.47-2.49-0.84-3.7
				c-0.58-1.92-1.26-3.99-2.93-5.1c-1.22-0.81-2.82-0.87-4.16-0.33c-0.56,0.23-1.42,0.67-1.78,1.18c-0.4,0.59-0.5,1.66-0.7,2.35
				c-0.47,1.68-0.94,3.37-1.4,5.06c-0.89,3.27-1.75,6.54-2.62,9.82c-0.64,2.43-1.28,4.86-1.74,7.34c-0.41,2.24-0.37,4.54-0.47,6.82
				c-0.24,5.41,0.76,20.5,0.74,22.65c-0.02,1.91-0.4,3.77-0.52,5.67c-0.08,1.39-0.17,2.79-0.15,4.18c0.02,1.57,0.19,3.14,0.64,4.64
				c0.22,0.74,0.52,1.47,1,2.06c0.49,0.6,1.19,1.05,1.95,1.11c0.54,0.04,1.12-0.1,1.59,0.16c0.25,0.14,0.42,0.38,0.6,0.6
				c0.69,0.91,1.58,1.85,2.72,1.88c0.33,0.01,0.71-0.09,0.87-0.38c0.1-0.19,0.1-0.41,0.08-0.63c-0.11-1.61-0.6-3.17-1.08-4.7
				c0.63,1.15,1.34,2.37,2.54,2.9c0.16,0.07,0.36,0.13,0.51,0.04c0.12-0.07,0.17-0.2,0.22-0.33c0.31-0.89,0.31-1.89,0-2.78
				c-0.23-0.66-0.63-1.31-0.55-2c0.32,0.44,0.73,0.92,1.27,0.93c0.64,0.01,1.09-0.63,1.25-1.24c0.27-1.02,0.07-2.12-0.3-3.11
				c-0.37-0.99-0.9-1.92-1.32-2.89c-0.61-1.43-0.98-2.96-1.59-4.4c-0.62-1.43-1.5-2.82-1.92-4.29c-0.16-5.32,0.72-10.59,1.66-15.81
				c0.92-5.07,1.47-10.22,3.17-15.11c0.36-1.03,0.74-2.05,1.13-3.07C55.71,221.06,56.18,219.83,56.54,218.57z"/>
			<path class="st7" d="M63.54,382.48c-0.46,0.26-1.56,1.22-2.01,1.06c-0.46-0.16-0.82-1.27-0.62-1.68
				c-0.83,1.76-1.53,3.6-1.88,5.52c-0.31,1.72-0.49,3.58-0.01,5.29c0.51,1.8,1.84,2.61,3.64,2.89c3.04,0.48,6.28-0.59,8.44-2.78
				c0.69-0.7,1.38-1.89,2.35-2.19c1.05-0.31,2.14-0.54,3.19-0.88c2.75-0.89,5.35-2.24,7.65-3.98c0.56-0.42,1.12-0.88,1.52-1.46
				c0.39-0.56,0.63-1.21,0.86-1.85c0.26-0.71,0.51-1.43,0.77-2.14c0.46-1.28,0.98-3.22-0.04-4.36c-0.98-1.11-2.56-0.9-3.85-0.59
				c-4.25,1.03-8.51,2.08-12.61,3.62c-2,0.75-3.97,1.62-5.84,2.66C64.63,381.88,64.09,382.17,63.54,382.48z"/>
			<path class="st6" d="M78.11,333.57c0.75-6.67,1.64-13.34,2-20.05c0.43-8.04,0.11-16.1-0.21-24.14c-0.13-3.24-0.27-6.51-1.12-9.64
				c-0.2-0.72-0.57-1.54-1.3-1.63c-0.36-0.04-0.71,0.11-1.04,0.25c-1.46,0.62-3.03,1.13-4.62,1.03c-3.59-0.21-4.67-3.77-6.39-6.3
				c-0.94-1.38-2.24-2.44-3.19-3.8c-0.6-0.87-2.66-4-1.7-5.09c-3.08,3.48-4.97,7.95-5.52,12.55c-0.59,4.94,1.03,9.04,1.99,13.76
				c0.21,1.05,0.28,2.13,0.35,3.2c0.47,7.6,0.95,15.19,1.42,22.79c0.29,4.64,0.49,22.95,0.37,25.61
				c-0.26,5.72-0.41,11.45-0.45,17.18c-0.06,8.21,0.08,16.49,0.54,24.69c0.02,0.39,0.02,1.13,0.28,1.46
				c0.31,0.39,1.15,0.45,1.61,0.51c1.34,0.18,2.71-0.02,4.01-0.34c3.36-0.83,6.52-2.56,8.87-5.1c0.71-0.77,1.53-10.44,1.8-12.79
				c0.38-3.42,1.69-28.52,2.1-32.27C77.97,334.82,78.04,334.19,78.11,333.57z"/>
			<path class="st28" d="M48.98,196.01c-1.44,3.35-2.88,6.7-4.32,10.05c-0.16,0.36-0.31,0.74-0.3,1.13
				c0.01,0.24,0.08,0.48,0.17,0.71c0.87,2.37,2.74,4.25,4.88,5.59c2.13,1.34,4.53,2.2,6.9,3.04c0.13,0.05,0.29,0.09,0.41,0.02
				c0.12-0.07,0.15-0.24,0.17-0.38c0.65-4.87,1.41-9.74,2.84-14.44c1.23-4.05,2.97-8.1,2.7-12.33c-0.16-2.47-1.97-6.36-5.1-5.51
				c-2.78,0.76-4.75,4.64-5.98,6.98C50.48,192.55,49.72,194.28,48.98,196.01z"/>
			<path class="st28" d="M85.78,388.53c-1.55,0-3.09,0.07-4.63,0.14c-0.49,0.02-1.15-0.23-1.56-0.49c-0.15-0.1-1.17-1-0.97-1.22
				c-1.1,1.19-1.99,2.57-2.65,4.06c-1.28,2.91-1.66,6.23-0.99,9.34c0.31,1.46,1.14,2.87,2.4,3.7c0.81,0.53,1.85,0.79,2.81,0.73
				c1.05-0.06,1.8-0.64,2.69-1.11c1.33-0.7,2.79-1.12,4.26-1.4c2.08-0.39,4.19-0.52,6.28-0.86c3.7-0.61,7.3-1.9,10.54-3.79
				c1.41-0.82,2.79-1.79,3.72-3.14c0.4-0.58,0.71-1.24,0.75-1.94c0.05-0.9-0.49-1.73-1.2-2.24c-1.03-0.74-2.49-0.81-3.69-0.92
				C97.65,388.81,91.71,388.52,85.78,388.53z"/>
			<path class="st5" d="M100.35,279.9c-0.11-3.41-0.28-6.98-2.03-9.9c-0.12-0.21-0.29-0.43-0.53-0.43c-0.17,0-0.32,0.12-0.45,0.23
				c-5.38,4.45-13.33,4.31-19.92,2.02c-2.1-0.73-4.25-1.82-6.48-2.09c-1.73-0.21-2.57,0.26-3.69-1.38
				c-2.54,3.6-3.21,9.06-2.75,13.34c0.36,3.36,1.56,6.57,3.32,9.45c0.88,1.44,1.9,2.8,3,4.07c0.83,0.96,2.46,1.57,3.05,2.56
				c0.39,0.66,0.46,1.45,0.52,2.22c0.77,9.62,1.54,19.25,2.31,28.87c0.4,5.06-0.96,60.83-0.63,61.94c0.53,1.8,3.39,2.23,4.98,2.38
				c0.18,0.02,0.36,0.03,0.54,0.04c3.73,0.22,7.67-0.62,10.47-3.09c0.31-0.28,0.62-0.58,0.79-0.96c0.17-0.39,0.18-0.84,0.19-1.27
				c0.09-4.87,2.44-31.46,2.95-36.95c1.29-13.85,2.43-27.72,3.32-41.6C99.93,299.57,100.65,289.7,100.35,279.9z"/>
			<path class="st7" d="M50.89,193.89c-1.37,6.25-0.93,12.92,0.04,19.15c2.34,14.91,7.84,29.7,6.17,44.99
				c-0.63,5.82-2.32,11.51-2.49,17.36c-0.02,0.63-0.01,1.29,0.26,1.85c0.26,0.53,0.73,0.93,1.2,1.29c5.77,4.46,13.27,6,20.55,6.57
				c4.92,0.39,9.88,0.39,14.8,0.01c3.04-0.23,6.13-0.63,8.91-1.9c2.2-1,1.32-2.89,1.16-5c-0.18-2.37-0.32-4.74-0.43-7.11
				c-0.21-4.74-0.26-9.49-0.15-14.24c0.16-6.93,0.65-13.86,1.47-20.75c0.35-2.89,0.69-5.62,0.65-8.5
				c-0.05-3.34,1.12-7.05,1.73-10.33c0.42-2.22,0.84-4.44,1.28-6.65c0.56-2.84,0.52-4.69-1.58-6.83c-1.16-1.18-2.32-2.37-3.62-3.4
				c-1.75-1.39-3.72-2.48-5.68-3.56c-4.55-2.51-9.1-5.02-13.77-7.31c-6.2-3.05-12.74-5.74-19.63-6.25
				c-1.44-0.11-2.92-0.11-4.29,0.36c-2.86,0.99-4.63,3.88-5.62,6.75C51.47,191.55,51.15,192.71,50.89,193.89z"/>
			<path class="st18" d="M88.31,187.72c-0.26,1.37-0.46,2.75-0.64,4.14c-0.12,0.89-0.19,1.66-1.07,2.1
				c-0.71,0.36-1.47,0.62-2.24,0.8c-1.5,0.35-3.06,0.42-4.6,0.4c-1.8-0.03-3.6-0.18-5.36-0.54c-1.49-0.3-2.97-0.77-4.19-1.66
				c-0.88-0.65-1.62-1.54-1.98-2.58c-0.38-1.1,0.21-1.63,0.85-2.49c1.48-1.97,2.68-4.43,2.13-6.84c-0.39-1.72-1.59-3.11-2.61-4.55
				c-2.4-3.37-3.95-7.4-4.07-11.54c-0.11-4.14,1.29-8.36,4.13-11.38c3.76-3.99,9.66-5.48,15.11-4.83c1.39,0.17,2.79,0.46,4.02,1.14
				c1.28,0.71,2.14,1.78,3.2,2.77c2.93,2.71,3.67,6.75,4,10.58c0.14,1.56,0.13,3.13,0.12,4.7c-0.02,3.75-0.05,7.51-0.68,11.2
				c-0.28,1.64-0.87,3.49-2.41,4.14c-0.46,0.19-0.97,0.26-1.42,0.46C89.14,184.38,88.61,186.15,88.31,187.72z"/>
			<path class="st29" d="M63.56,162.93c-0.02,3.04,1.01,5.98,2.19,8.78c0.74,1.75,1.55,3.49,2.7,5c1.15,1.51,2.68,2.78,4.49,3.35
				c1.81,0.56,3.92,0.33,5.4-0.86c2.13-1.71,2.47-4.8,3.94-7.1c1.63-2.55,4.78-4.03,7.78-3.66c0.56-2.09,2.83-3.41,3.28-5.53
				c0.24-1.13-0.09-2.31-0.59-3.35c-0.5-1.04-1.17-2-1.66-3.04c-0.72-1.54-1.05-3.23-1.74-4.78c-0.03-0.07-0.07-0.15-0.14-0.19
				c-0.13-0.07-0.28,0.03-0.39,0.13c-2.4,1.98-5.43,3.13-8.51,3.55c-3.08,0.42-6.23,0.15-9.28-0.49c-1.24-0.26-2.47-0.58-3.73-0.72
				c-0.31-0.03-0.64-0.05-0.92,0.07c-1.08,0.47-1.69,2.45-2.01,3.51C63.87,159.29,63.57,161.16,63.56,162.93z"/>
			<path class="st13" d="M88.51,148c-0.28-0.01-0.56-0.02-0.84-0.06c-0.68-0.08-1.32-0.37-1.99-0.52c-1.04-0.24-2.1-0.42-3.17-0.5
				c-3.05-0.22-6.11,0.43-9.02,1.37c-2.12,0.69-4.21,1.55-6,2.87c-1.8,1.32-3.3,3.12-3.94,5.25c-0.98,3.27,0.47,7.28,3.62,8.74
				c0.23,0.11,0.46,0.2,0.7,0.28c2.1,0.71,4.41,0.52,6.57,0.01c3.88-0.91,7.52-2.81,10.48-5.47c1.14-1.02,2.28-2.21,3.78-2.49
				c1.78-0.33,3.27-0.22,4.57-1.7c1.22-1.39,1.16-3.67,0.27-5.23c-0.74-1.3-2.09-2.23-3.57-2.46C89.49,148.02,89,148.02,88.51,148z"
				/>
			<path class="st18" d="M166.54,183.2c-0.14-0.6-0.54-1.18-1.12-1.38c0.2-0.97,0.22-1.98,0.04-2.95c-0.05-0.31-0.14-0.62-0.34-0.86
				c-0.21-0.23-0.58-0.34-0.84-0.16c0.15-0.71-0.01-1.53-0.56-2.01c-0.55-0.48-1.51-0.48-1.94,0.12c-0.11,0.16-0.19,0.35-0.34,0.46
				c-0.21,0.16-0.5,0.13-0.76,0.14c-0.7,0.05-1.32,0.52-1.74,1.09c-0.42,0.57-0.66,1.25-0.91,1.91c-0.74,1.93-1.58,3.82-2.53,5.65
				c-0.46,0.9-1.13,1.9-2.14,1.93c-0.17,0.01-0.36-0.02-0.51,0.06c-0.15,0.07-0.25,0.23-0.33,0.38c-1.12,2.04-1.54,4.39-1.57,6.72
				c0,2.17,0.5,4.28,0.58,6.44c-0.36,0.34-0.69,0.7-0.99,1.04c-4.62,5.04-16.14,17.61-17.25,18.88c-0.55,0.63-1.09,1.14-1.45,1.71
				c-0.62-0.33-1.26-0.62-1.89-0.91c-2.32-1.04-4.61-2.13-6.87-3.28c-1.4-0.71-4.26-2.69-5,0.02c-0.13,0.46-0.06,0.95-0.13,1.43
				c-0.1,0.66-0.46,1.25-0.85,1.78c-0.89,1.21-2.03,2.24-3.31,3.02c-1.3,0.79-2.74,1.31-4.03,2.1c-0.1,0.06-0.21,0.13-0.24,0.25
				c-0.05,0.17,0.07,0.33,0.19,0.46c1.32,1.48,2.67,2.99,4.37,4.02c1.55,0.94,3.32,1.44,5.06,1.95c5.19,1.52,10.43,3.24,15.84,3.28
				c0.51,0,1.18,0,1.62-0.15c1.36-0.48,2.24-1.56,3.15-2.62c3.22-3.77,5.93-8.06,8.72-12.14c3.28-4.79,6.61-9.59,9.58-14.59
				c1.99-3.35,4.39-6.47,5.9-10.07c1.58-3.76,2.2-7.84,2.64-11.87C166.62,184.43,166.69,183.8,166.54,183.2z"/>
			<path class="st28" d="M119.73,225.71c1.17-1.68,2-3.64,2.28-5.68c0.11-0.83,0.28-1.98,0.05-2.8
				c-0.2-0.72-12.34-10.39-16.49-13.77c-1.59-1.3-4.33-3.92-6.41-2.16c-2.05,1.74-3,4.93-3.22,7.51c-0.27,3.24,0.49,6.48,1.58,9.54
				c1.93,5.44,4.93,10.49,8.77,14.79c1.28,1.44,4.48-0.25,5.78-0.97C115.01,230.53,117.8,228.47,119.73,225.71z"/>
		</g>
	</g>
	<path class="st6" d="M315.7,373.79l-54.68-31.57c-1.13-0.65-0.99-1.79,0.32-2.54l34.05-19.66c1.3-0.75,3.27-0.83,4.4-0.18
		l54.68,31.57c1.13,0.65,0.99,1.79-0.32,2.54l-34.05,19.66C318.8,374.36,316.83,374.45,315.7,373.79z"/>
	<path class="st6" d="M389.06,332.61l-54.68-31.57c-1.13-0.65-0.99-1.79,0.32-2.54l34.05-19.66c1.3-0.75,3.27-0.83,4.4-0.18
		l54.68,31.57c1.13,0.65,0.99,1.79-0.32,2.54l-34.05,19.66C392.16,333.18,390.19,333.27,389.06,332.61z"/>
	<g>
		<g>
			<path class="st20" d="M369.83,282.44l-13.38-13.18L339,259.75l-19.88-6.17h-22.89l-14.62,3.15l-12.8,7.36l-6.17,6.29v8.69h-4.82
				v25.52l0.03-0.03c0.34,6.9,5,13.73,14.04,18.98l23.22,13.51l4.53-2.62l-19.23-11.19l5.19-0.45l6.69-14.69l-14.83-8.04l-8.2-7.93
				c1.91-2.05,4.36-3.98,7.36-5.71c7.98-4.61,18.58-7.15,29.84-7.15c11.26,0,21.81,2.54,29.74,7.15l23.22,13.51l4.53-2.62
				l-4.29-2.49L369.83,282.44z"/>
			<g>
				<path class="st5" d="M272.12,259c9.2-5.31,21.39-8.24,34.35-8.23c12.96-0.01,25.12,2.92,34.25,8.23l23.22,13.51l-4.53,2.62
					l-23.22-13.51c-7.93-4.61-18.49-7.15-29.74-7.15c-11.26,0-21.86,2.54-29.84,7.15c-16.48,9.51-16.56,25-0.19,34.51l23.22,13.51
					l-4.53,2.62l-23.22-13.51C253.05,287.79,253.15,269.95,272.12,259z"/>
			</g>
		</g>
		<g>
			<g>
				<g class="st3">
					<path class="st6" d="M410.94,309.64c2.37-1.36,3.83-4.28,3.83-8.45v-6.09c0-8.27-5.79-18.29-12.93-22.39l-17.97-10.3
						c-3.55-2.03-6.76-2.22-9.1-0.88l-9.64,5.53c2.34-1.34,5.55-1.15,9.1,0.88l17.97,10.3c7.14,4.1,12.93,14.12,12.93,22.39v6.09
						c0,4.16-1.47,7.09-3.83,8.44L410.94,309.64z"/>
					<g>
						<path class="st30" d="M405.13,306.73c0,8.27-5.79,11.66-12.93,7.56l-17.97-10.3c-7.14-4.09-12.93-14.12-12.93-22.39v-6.09
							c0-8.27,5.79-11.65,12.93-7.56l17.97,10.3c7.14,4.1,12.93,14.12,12.93,22.39V306.73z"/>
					</g>
				</g>
			</g>
			<g>
				<g class="st3">
					<path class="st5" d="M368.47,268.83l19.44,11.15l10.43-5.98l-19.44-11.15c-3.84-2.2-7.31-2.4-9.84-0.96l-10.43,5.98
						C361.16,266.43,364.63,266.63,368.47,268.83z"/>
					<path class="st30" d="M408.18,313.95c2.56-1.47,4.15-4.63,4.15-9.14v-6.59c0-8.95-6.26-19.79-13.99-24.22l-10.43,5.98
						c7.73,4.43,13.99,15.27,13.99,24.22v6.59c0,4.5-1.59,7.67-4.15,9.14L408.18,313.95z"/>
					<g>
						<path class="st30" d="M401.89,310.79c0,8.95-6.26,12.61-13.99,8.18l-19.44-11.15c-7.72-4.43-13.99-15.27-13.99-24.22v-6.59
							c0-8.95,6.26-12.61,13.99-8.18l19.44,11.15c7.73,4.43,13.99,15.27,13.99,24.22V310.79z"/>
					</g>
				</g>
			</g>
			<g>
				<path class="st31" d="M348.21,271.01c1.05-1.82,2.51-3.29,4.33-4.35c4.62-2.67,10.91-2.09,17.27,1.58l13.59,7.84
					c10.89,6.29,19.42,19.89,19.43,30.96l0,2.71c0,5.72-2.24,10.16-6.3,12.5c-4.62,2.67-10.91,2.09-17.27-1.58l-13.59-7.84
					c-10.89-6.29-19.42-19.89-19.43-30.96l0,0v-2.71C346.24,276.01,346.92,273.25,348.21,271.01z"/>
			</g>
			<g>
				<path class="st32" d="M399.65,319.63c2.07-2.47,3.18-5.86,3.17-9.87l0-2.7c0-11.08-8.53-24.67-19.42-30.96l-13.59-7.85
					c-5.42-3.13-10.81-4.01-15.13-2.53c-0.44,0.53-0.84,1.1-1.2,1.71c-1.29,2.24-1.98,5.01-1.97,8.16l0,2.71
					c0,11.07,8.53,24.67,19.42,30.96l13.59,7.84C389.94,320.22,395.32,321.1,399.65,319.63z M375.07,302.06
					c-8.28-4.78-15.28-15.67-15.28-23.78l0-2.7c0-1.52,0.28-4.24,2.16-5.33c1.96-1.13,5.31-0.54,8.98,1.58l13.59,7.84
					c8.28,4.78,15.28,15.67,15.28,23.78l0,2.7c0,1.07-0.14,2.73-0.87,3.99c-0.31,0.54-0.73,1.01-1.29,1.33
					c-1.96,1.13-5.31,0.54-8.98-1.58L375.07,302.06z"/>
			</g>
			<g>
				<path class="st8" d="M348.21,271.01c1.05-1.82,2.51-3.29,4.33-4.35c4.62-2.67,10.91-2.09,17.27,1.58l13.59,7.84
					c10.89,6.29,19.42,19.89,19.43,30.96l0,2.71c0,5.72-2.24,10.16-6.3,12.5c-4.62,2.67-10.91,2.09-17.27-1.58l-13.59-7.84
					c-10.89-6.29-19.42-19.89-19.43-30.96l0,0v-2.71C346.24,276.01,346.92,273.25,348.21,271.01z M393.66,313.74
					c0.73-1.27,0.87-2.92,0.87-3.99v-2.71c0-8.11-7-19-15.28-23.78l-13.59-7.84c-3.67-2.12-7.02-2.71-8.98-1.58
					c-1.88,1.08-2.16,3.8-2.16,5.32l0,2.7c0,8.11,7,19,15.28,23.78l13.59,7.84c3.67,2.12,7.02,2.71,8.98,1.58
					C392.93,314.75,393.35,314.28,393.66,313.74z"/>
				<path class="st32" d="M349.39,274.4c0.74-1.29,1.76-2.31,3.02-3.04c3.48-2.01,8.47-1.44,13.69,1.58l13.59,7.84
					c9.73,5.61,17.64,18.11,17.64,27.86v2.71c0,2.51-0.5,4.65-1.5,6.37c-0.74,1.29-1.76,2.31-3.02,3.04
					c-3.48,2.01-8.47,1.44-13.69-1.58l-13.59-7.84c-9.72-5.61-17.64-18.11-17.64-27.86l0-2.7
					C347.9,278.26,348.4,276.12,349.39,274.4z M394.84,317.14c1.11-1.93,1.35-4.21,1.35-5.78l0-2.7c0-9.39-7.66-21.44-17.07-26.88
					l-13.59-7.84c-4.86-2.8-9.43-3.38-12.55-1.58c-1.07,0.62-1.94,1.5-2.6,2.64l0,0c-1.11,1.93-1.35,4.21-1.35,5.78l0,2.7
					c0,9.39,7.66,21.44,17.07,26.88l13.59,7.84c4.86,2.8,9.43,3.38,12.55,1.58C393.31,319.16,394.19,318.27,394.84,317.14z"/>
			</g>
		</g>
		<g>
			<g>
				<path class="st8" d="M285.96,306.97c1.05-1.82,2.51-3.29,4.33-4.35c4.62-2.67,10.91-2.09,17.27,1.58l13.59,7.84
					c10.89,6.29,19.43,19.89,19.43,30.96v2.7c0,5.72-2.24,10.16-6.3,12.5c-4.62,2.67-10.91,2.09-17.27-1.58l-13.59-7.84
					c-10.89-6.29-19.43-19.89-19.43-30.96l0,0l0-2.71C283.99,311.97,284.67,309.21,285.96,306.97z M331.41,349.71
					c0.73-1.27,0.87-2.92,0.87-3.99v-2.7c0-8.11-7-19-15.28-23.78l-13.59-7.84c-3.67-2.12-7.02-2.71-8.98-1.58
					c-1.88,1.08-2.16,3.8-2.16,5.32l0,2.7c0,8.11,7,19,15.28,23.78l13.59,7.84c3.67,2.12,7.02,2.71,8.98,1.58
					C330.68,350.71,331.1,350.24,331.41,349.71z"/>
			</g>
			<g>
				<g class="st3">
					<path class="st6" d="M330.39,356.19c2.37-1.36,3.83-4.28,3.83-8.45v-6.09c0-8.27-5.79-18.29-12.93-22.39l-17.97-10.3
						c-3.55-2.03-6.76-2.22-9.1-0.88l-9.64,5.53c2.34-1.34,5.55-1.15,9.1,0.88l17.97,10.3c7.14,4.1,12.93,14.12,12.93,22.39v6.09
						c0,4.16-1.47,7.09-3.83,8.45L330.39,356.19z"/>
					<g>
						<path class="st30" d="M324.58,353.27c0,8.27-5.79,11.66-12.93,7.56l-17.97-10.3c-7.14-4.09-12.93-14.12-12.93-22.39v-6.09
							c0-8.27,5.79-11.65,12.93-7.56l17.97,10.3c7.14,4.1,12.93,14.12,12.93,22.39V353.27z"/>
					</g>
				</g>
			</g>
			<g>
				<g class="st3">
					<path class="st5" d="M288.31,315.05l19.44,11.15l10.43-5.98l-19.44-11.15c-3.84-2.2-7.31-2.4-9.84-0.95l-10.43,5.98
						C280.99,312.65,284.47,312.85,288.31,315.05z"/>
					<path class="st30" d="M328.01,360.16c2.56-1.47,4.15-4.63,4.15-9.14v-6.59c0-8.95-6.26-19.79-13.99-24.22l-10.43,5.98
						c7.73,4.43,13.99,15.28,13.99,24.22v6.59c0,4.5-1.59,7.67-4.14,9.14L328.01,360.16z"/>
					<g>
						<path class="st6" d="M321.73,357.01c0,8.95-6.26,12.61-13.99,8.18l-19.44-11.15c-7.72-4.43-13.99-15.28-13.99-24.22v-6.59
							c0-8.95,6.26-12.61,13.99-8.18l19.44,11.15c7.73,4.43,13.99,15.28,13.99,24.22V357.01z"/>
					</g>
					<g>
						<path class="st5" d="M315.97,356.61c0,7.35-5.14,10.35-11.48,6.72l-15.96-9.15c-6.34-3.64-11.48-12.54-11.48-19.89v-5.41
							c0-7.35,5.14-10.35,11.48-6.71l15.96,9.15c6.34,3.64,11.48,12.54,11.48,19.89V356.61z"/>
					</g>
					<g>
						<path class="st8" d="M310.39,356.22c0,5.79-4.05,8.17-9.06,5.3l-12.58-7.22c-5-2.87-9.06-9.89-9.06-15.68v-4.27
							c0-5.79,4.06-8.16,9.06-5.29l12.58,7.22c5,2.87,9.06,9.89,9.06,15.68V356.22z"/>
					</g>
				</g>
			</g>
		</g>
	</g>
	<g class="st33">
		<g class="st34">
			<g>
				<rect x="178.56" y="473.84" class="st15" width="8.02" height="5.05"/>
				<rect x="188.82" y="473.84" class="st15" width="24.53" height="5.05"/>
				<rect x="216.08" y="473.84" class="st15" width="7.47" height="5.05"/>
				<rect x="227" y="473.84" class="st15" width="7.47" height="5.05"/>
				<rect x="237.85" y="473.84" class="st15" width="33.98" height="5.05"/>
				<rect x="275.07" y="473.84" class="st15" width="46.37" height="5.05"/>
			</g>
			<g>
				<rect x="178.56" y="463.15" class="st15" width="8.02" height="5.05"/>
				<rect x="210.27" y="463.15" class="st15" width="8.02" height="5.05"/>
				<rect x="189.71" y="463.15" class="st15" width="16.29" height="5.05"/>
				<rect x="221.36" y="463.15" class="st15" width="20.69" height="5.05"/>
				<rect x="275.23" y="463.15" class="st15" width="14.14" height="5.05"/>
				<rect x="245.33" y="463.15" class="st15" width="25.21" height="5.05"/>
				<rect x="292.62" y="463.15" class="st15" width="28.81" height="5.05"/>
			</g>
			<g>
				<rect x="178.56" y="453.02" class="st15" width="12.18" height="5.05"/>
				<rect x="204.8" y="453.02" class="st15" width="28.42" height="5.05"/>
				<rect x="265.23" y="453.02" class="st15" width="33.64" height="5.05"/>
				<rect x="236.98" y="453.02" class="st15" width="25.12" height="5.05"/>
				<rect x="312.59" y="453.02" class="st15" width="8.84" height="5.05"/>
				<rect x="193.2" y="453.02" class="st15" width="8.81" height="5.05"/>
				<rect x="301.72" y="453.02" class="st15" width="7.26" height="5.05"/>
			</g>
			<g>
				<rect x="178.56" y="442.88" class="st15" width="21.44" height="5.05"/>
				<rect x="281.1" y="442.88" class="st15" width="40.33" height="5.05"/>
				<rect x="203.93" y="442.88" class="st15" width="19.58" height="5.05"/>
				<rect x="227.18" y="442.88" class="st15" width="16.96" height="5.05"/>
				<rect x="258.76" y="442.88" class="st15" width="16.96" height="5.05"/>
				<rect x="248.14" y="442.88" class="st15" width="7.42" height="5.05"/>
			</g>
			<g>
				<rect x="178.56" y="494.42" class="st15" width="12.18" height="5.05"/>
				<rect x="204.8" y="494.42" class="st15" width="28.42" height="5.05"/>
				<rect x="265.23" y="494.42" class="st15" width="33.64" height="5.05"/>
				<rect x="236.98" y="494.42" class="st15" width="25.12" height="5.05"/>
				<rect x="312.59" y="494.42" class="st15" width="8.84" height="5.05"/>
				<rect x="193.2" y="494.42" class="st15" width="8.81" height="5.05"/>
				<rect x="301.72" y="494.42" class="st15" width="7.26" height="5.05"/>
			</g>
			<g>
				<rect x="178.56" y="484.29" class="st15" width="21.44" height="5.05"/>
				<rect x="281.1" y="484.29" class="st15" width="40.33" height="5.05"/>
				<rect x="203.93" y="484.29" class="st15" width="19.58" height="5.05"/>
				<rect x="227.18" y="484.29" class="st15" width="16.96" height="5.05"/>
				<rect x="258.76" y="484.29" class="st15" width="16.96" height="5.05"/>
				<rect x="248.14" y="484.29" class="st15" width="7.42" height="5.05"/>
			</g>
		</g>
	</g>
</g>
</svg>
